/* XPM */
static char *result[] = {
/* columns rows colors chars-per-pixel */
"70 70 256 2 ",
"   c #0C0608",
".  c #1B0C0C",
"X  c #160508",
"o  c #1A0913",
"O  c #230304",
"+  c #280302",
"@  c #220B0C",
"#  c #2B0709",
"$  c #380709",
"%  c #250B14",
"&  c #2A0B14",
"*  c #271215",
"=  c #361319",
"-  c #360E0C",
";  c #1D1520",
":  c #261923",
">  c #3C1726",
",  c #362A2C",
"<  c #470704",
"1  c #580805",
"2  c #581409",
"3  c #440E17",
"4  c #48171A",
"5  c #541410",
"6  c #680805",
"7  c #7B0400",
"8  c #7B0F0F",
"9  c #68130B",
"0  c #7A1707",
"q  c #671615",
"w  c #781A12",
"e  c #7A0C1A",
"r  c #5E221A",
"t  c #76271A",
"y  c #702B11",
"u  c #661A22",
"i  c #5B2528",
"p  c #572A34",
"a  c #522D3A",
"s  c #712927",
"d  c #682D2F",
"f  c #551D28",
"g  c #70493A",
"h  c #4B3B46",
"j  c #6F3A44",
"k  c #544A58",
"l  c #675558",
"z  c #435360",
"x  c #8C0805",
"c  c #960703",
"v  c #881608",
"b  c #9A1705",
"n  c #8F1915",
"m  c #A30604",
"M  c #AA1803",
"N  c #B41803",
"B  c #A81C13",
"V  c #892415",
"C  c #982617",
"Z  c #8C2C10",
"A  c #A52809",
"S  c #BA290C",
"D  c #A52819",
"F  c #AE3317",
"G  c #861D21",
"H  c #8B2929",
"J  c #972E23",
"K  c #8B3526",
"L  c #9A3328",
"P  c #893332",
"I  c #973C39",
"U  c #A72925",
"Y  c #AA3829",
"T  c #B83927",
"R  c #A53D38",
"E  c #B82D2C",
"W  c #D21800",
"Q  c #CF1E0C",
"!  c #D82806",
"~  c #CB3312",
"^  c #C43728",
"/  c #D13736",
"(  c #984638",
")  c #914732",
"_  c #A5482B",
"`  c #A64837",
"'  c #B74836",
"]  c #B4553B",
"[  c #A25134",
"{  c #D24E17",
"}  c #EC4E16",
"|  c #C7452A",
" . c #C8453A",
".. c #D54935",
"X. c #CE5A2F",
"o. c #E44829",
"O. c #E6572B",
"+. c #E84132",
"@. c #E45C3C",
"#. c #F24D2F",
"$. c #DD6D3D",
"%. c #ED683C",
"&. c #943C42",
"*. c #843747",
"=. c #954A43",
"-. c #94574A",
";. c #86514C",
":. c #A95A4C",
">. c #B65844",
",. c #B25953",
"<. c #A94F4E",
"1. c #9A6956",
"2. c #B3654A",
"3. c #A96352",
"4. c #B76255",
"5. c #B16B4B",
"6. c #9D6D64",
"7. c #916E6A",
"8. c #B77568",
"9. c #B06E6B",
"0. c #85546A",
"q. c #C75442",
"w. c #D85749",
"e. c #C95B57",
"r. c #CF4746",
"t. c #E7574B",
"y. c #C96747",
"u. c #D6684B",
"i. c #C66656",
"p. c #CA7858",
"a. c #D57156",
"s. c #EE684F",
"d. c #F97249",
"f. c #E86855",
"g. c #ED7154",
"h. c #F87259",
"j. c #FA694B",
"k. c #C96968",
"l. c #D26E6C",
"z. c #C57A76",
"x. c #D3776D",
"c. c #F77E69",
"v. c #FA7C71",
"b. c #E77366",
"n. c #C65E69",
"m. c #94846C",
"M. c #AB8077",
"N. c #FF8457",
"B. c #ED825E",
"V. c #CD8768",
"C. c #CA867B",
"Z. c #D09479",
"A. c #F88668",
"S. c #E78775",
"D. c #F78C74",
"F. c #FE9376",
"G. c #EE8D70",
"H. c #EC9365",
"J. c #9F7384",
"K. c #B88786",
"L. c #B6968F",
"P. c #B4A197",
"I. c #AFB2AE",
"U. c #9696AE",
"Y. c #C78C88",
"T. c #D58C8A",
"R. c #C7978A",
"E. c #C69695",
"W. c #DA9897",
"Q. c #D09194",
"!. c #E59D8E",
"~. c #FA9987",
"^. c #EE9F98",
"/. c #C6A599",
"(. c #D9A69B",
"). c #D7B499",
"_. c #F7A589",
"`. c #FBA69A",
"'. c #F6B791",
"]. c #D7A5A4",
"[. c #C6B9A8",
"{. c #D7B5A8",
"}. c #C7BAB6",
"|. c #D7BBB9",
" X c #CAA9AE",
".X c #FEB6A9",
"XX c #F8B4B2",
"oX c #E5B3AC",
"OX c #E394A4",
"+X c #D5C3B9",
"@X c #C7CBB4",
"#X c #E2C3BA",
"$X c #F4C5B3",
"%X c #8FA4C3",
"&X c #CEBBC5",
"*X c #DBB3C5",
"=X c #FFBDC2",
"-X c #D9C9C8",
";X c #D9D5CB",
":X c #DCD5D4",
">X c #DBDDD4",
",X c #DCDDDC",
"<X c #D8D8D8",
"1X c #D2CDCE",
"2X c #EAD5CA",
"3X c #E4DBD5",
"4X c #E3DDDC",
"5X c #E6D5D8",
"6X c #EECECD",
"7X c #DCE5D6",
"8X c #DDE2DD",
"9X c #DDEADC",
"0X c #D6E4DA",
"qX c #E2E2DD",
"wX c #E2EADE",
"eX c #E7E3DA",
"rX c #FFE4CF",
"tX c #DCDDE2",
"yX c #D7DEE6",
"uX c #CDDFE1",
"iX c #E3DDE2",
"pX c #EADDE5",
"aX c #E3DDEA",
"sX c #E7D5E4",
"dX c #F4D8E9",
"fX c #DDE3E2",
"gX c #DDEBE4",
"hX c #DCE4EB",
"jX c #DCEBEB",
"kX c #D5E8E8",
"lX c #DBF4E9",
"zX c #DEEEF2",
"xX c #DDEDFC",
"cX c #DBE5F1",
"vX c #DCF5F7",
"bX c #E1E1E1",
"nX c #EBE3E4",
"mX c #E3E9E5",
"MX c #E3E4EB",
"NX c #EAE3EB",
"BX c #E4EBEC",
"VX c #EAECEB",
"CX c #EBEBE5",
"ZX c #E4F1ED",
"AX c #E8F4E9",
"SX c #E3ECF3",
"DX c #ECEDF3",
"FX c #E6EAF6",
"GX c #F4EDFA",
"HX c #EBF3F4",
"JX c #E6F4FC",
"KX c #EBF4FC",
"LX c #ECFBFC",
"PX c #E7F8F7",
"IX c #F5F9FC",
"UX c #F1E7E9",
/* pixels */
"bXbXbXbXbXbXbXbXbXbXbXbXbXfXqXbXqXiXfXbXbXbXbXbXbXbXbXiXbXbXbXbXiXqXbXbXbXbXbXbXbXbXbXbXbXbXbXbXbXbXqXiXbXiXfXbXbXbXbXbXbXbXbXbXbXbXbXbXiXqX",
"bXbXbXbXbXbXbXbXbXiXiXbXbXbXiXbXbXbXbXbXbXbXbXfXbXbXfXqXbXbXbXbXbXfXfXqXbXbXbXiXtXqXbXbXbXbXbXbXbXbXbXfXbXqXbXbXbXbXbXfXbXbXqXiXbXbXbXbXbXfX",
"bXbXbXbXbXbXbXbXbXqXfXbXbXbXbXbXbXbXbXbXbXbXbXqXbXbXbXbXbXbXfXiXbXbXbXiXbXbXfXqXbXbXbXbXbXbXbXbXbXbXbXbXbXbXbXfXbXbXbXiXbXbXfXbXqXfXbXbXbXbX",
"bXbXbXbXbXbXbXbXbXbXbXbXbXfXbXbXbXbXbXfXbXbXbXiXbXbXbXbXbXbXbXqXbXbXbXbXbXbXbXbXbXbXbXbXbXbXbXbXiXbXbXbXbXbXbXiXbXbXbXqXbXbXbXbXiXbXbXbXbXbX",
"bXbXbXbXbXbXbXbXbXbXbXbXbXbXfXbXbXbXbXiXfXiXbXbXiXfXqXbXbXbXbXbXbXbXqXbXbXbXqXbXbXbXbXbXbXbXbXbXqXfXbXbXbXbXbXbXbXbXiXbXiXbXbXbXbXbXbXbXiXbX",
"bXbXbXbXbXbX8XiXbXbXbXbXqXiXbXbXbXqXbXbXqXbXbXbXbXqXbXbXbXbXbXbXbXfXiXbXiXfXbXbXbXbXbXbXbXbXbXbXbXbXbXqXbXbXbXbXbXbXfXbXfXqXbXbXbXbXbXbXfXbX",
"bX8XbXbXbXbXbXbXbXbXbX4XbXbXbXbXbXbXbXbXbXbXbXbXbXbXbXfXbXbXbXbXbXbXbXbXbXbXbXbXbXbXbXbXbXbXbXbXbXbXbXfXbXqXbXbXbXbXbXbXbXqXbXbXfXbXbXbXbXbX",
"bXiXbXbXbXbXbXbXbXbXbXbXbXbXbXbXfXiXbXbXbXbXbXfXbXbXbXiXiXfXbXbXbXbXbXbXbXfXiXbXbXbXbXbXbXbXbXbXbXbXbXiXiXfXbXbXbXqXbXbXbXfXiXbXiXqXbXbXbXbX",
"bXbXbXbX8XiXbXbXbXbXbXbXbXbXbXbXbXbXbXbXbXbXiXqXbXbXbXbXbXbXbXbXbXbXbXbXbXbXbXqXfXiXbXbXbXbXbXqXbXbXbXbXbXbXbXbXbXiXbXbXqXbXbXbXbXbXbXiXfXbX",
"bXbXbXbXbXbXbXbXbXbXfXbXbXiXbXbXbXbXbXbXbXbXbXbXbXbXbXbXbXbXbXbXbXbX4XbXbXbXbXbXbXbXfXbXfXbXbXbXbXbXbXbXbXbXbXbXbXfXbXbXiXfXbXbXbXqXbXbXbXqX",
"bXbXbXbXbXbXbXbXbXiXqXbXbXiXbXqXbXbXbXbXiXbXbXbXiXfXbXbXbXbXbXbXbXbXbXbXbXbXbXiXbXbXbXbXbXbXbXbXbXbXbXbXbXbXbXbXbXbXbXbXfXqXbXbXbXfXbXbXbXbX",
"iXbXbXbXbXbXbXbXfXbXbXbXbXbXbXfXbXbXbXbXqXfXbXbXbXqXbXbXbXbXbX4XbXbXbXbXbXbXbXbXbXbXbXbXbXbXbXqXbXbXbXbX8XiXbXbXbXbXbXbXbXiXbXbXiXbXbXbXbXbX",
"8XbXbXbXbXbXbXbXbXbXbXbXbXbXbXbXqXtXbXbXiXfXbXbXbXbXbXbXbXbXbXfXbXbXbXbXbXbXqXfXbXbXiXfX,XbXbXMXbXiXbXqXbX4XbXbXbXbXbXbXbXbXbXbXiXqXfXbXbXbX",
"bXbXbXbXbXbXbXbXfXbXbXbXbXbXbXbXbXbXbXbXbXqXbXbXbXbXiXbXbXbXbXbXbXfXfXqXbXbXbXbXqXbXbXmXmXbXbXbXbXbXbXfX4XMXfXbXbXbXbXqXbXbXiXbXbXbXbXbXbXbX",
"bXbXbXbXbXbXbXbX4XbXbXbXbXiXbXbXbXbXbXbXbXbXbXbXbXbXfXqXbXbXbXbXbXbXbXiXbXbXbXbXfXbXMXmXMXmXbXqXbXqXiXfXbXmXbXbXiXfXiXfXbXbXfXqXbXbXbXfXbXbX",
"bXbXbXbXbXbXbXbXbXbXbXbXbXfXqXbXbXbXbXbXbXbXiXfXbXbXbXbXbXbXbXbXbXbXbXbXbXiXbXbXbXbXqX8XqXbXMXbXbXtXqXbXnXmXbXbXbXbXbXbXbXbXbXbXbXbXbXqXiXbX",
"bXbXbXbXiXbXbXbXbXbXbXqXiXfX8XbXqXfXfXaXeXqX8XaXfXbXbXbXbXiXbXbX4XeXbXhXfXMXCXmXFX8XbXFXMXHXMXkXbXMX4XMXMX>XdXiXbXbXbXbXbXbXbXbXbXbXbXiXfXbX",
"bXbXbXbXfXqXbXbXbXbXbXbXbXbXiXbXiXbX8XtXpXqXfXfXbXbXbXbXbXbXbXbXpXyX7XBXfXmXhXmXfXAX<Xz.] Y.4XCXhXNX4XfXgXAX,X7XbXfXbXbXbXbXbXbXbXbXbXqXbXbX",
"bXqXbXbXbXbXbXbXbXbXiXbXbXbXbXbXpX4XqXbXhXfXbXfXbXbXbXbXbXbXbXbX8XbXgX,XhXNXjXxXFX>Xe._ A F Y.zXjXfXmXmX|.W.8X8XbXbXbXbXbXbXbXbXbXbXbXbXbXbX",
"iXfXbXbXbXfXiXbXbXbXfXbXbXbXbXbXbX8XqXMXkX8XeXiXbXqXbXbXbXqXbXbXkXqX5XZXaX2X+X_..X{.[.uX6.S S Y.PXbXgXZXk./ 6XhXMX8XbXbXbXbXbXbXfXiXbXbXbXbX",
"bXbXfXiXbXbXbXbXbXbXbXbXbXbXbXbXbXfXhXNX4X3XeXaXbXbXbXbXbXfXbXbXhXMXjX(.(.F.} O.%.N.|.GX0XR.o.r.-XVXlX|.w.S.bXpXmXbXbXbXbXbXbXbXbXbXqXbXbXbX",
"bXbXbXqXbXqXfXiXbXfXbXqXbXbXbXbXqXbXgXeX6X2X7XNXbXbXbXbXbXbXmXfXeXiXZ.D..Xh.} } N.c.h.7XmXLXz.a.oXzX3Xl.q.{.hXfXbXMXbXbXqXfXiX8XbXbXbXbXbXbX",
"bXbXbXbXbXbXbXbXbXiXbXbXiXfXbXbXbXMXbX2X6X3XyXqXbXbXbXbXbXbXfXbXeX2X`.'.F.@.O.} F.=XA.dXjX7X ./ /.PXT./ x.eXhXnXbXbXbXqXiXbXbXbXbXbXbXbXbXiX",
"bXbXbXbXbXbXbXbXbXbXbXbXbXqXqXtXMXjX5X$X$XfXhX4XbXbXbXbXbXbXbXhX3XdX$XA._.@.} } w.XXN.'.HX&XM E 8X-X'  .-XjXiXzXmXbXbXtXqXbXbXbXbXbXbXbXbXbX",
"bXbXbXbXbXbXbXbXbX8XqXfXMX7X9XpX3XFXoX`.>X4X:XqX4X8XbXnXiXNX<XHX&XC.XXXX`.b.$.%.O.`.F.A.+X>.m ,.-X..T l.FXiXSX8XiXwXyXfX4XqXqXpXbXbXbXbXiXbX",
"iX8XbXbXbXfXbXbXaX8X4XfXiXqXtXMXvX@X_.'.'.rXtXcXaXhX,XfXmXBXSXHX{.S.5._ | X.{ g.b.S._.F. .A m m.k.r.~ ].PXeXSXeXmX<XpXgXbXfXkX7XbXbXbXbXbXqX",
"bXbXbXbXbXiXqXbXfXqXqXbXpXmXiXjXmXD.D._.A.oXHXMXZXBXVXMXZXVXbXZXP.-.t ' | C K v i.H.c.s.F N D -.e.+.y.xX9XkXxXbXmXhXVXmX9XnXMXqXfXbXbXbXbXbX",
"bXbXbXbXbXbXbXbXMXfXqXfXiXMXiXvXoXd.A.~.~.5XMX3X7XeX8XMXnXVXLXNX6., t u.e.q.q.U b ' f...A A -.e.s.q.7XGXiXSX7X8XiXbXtX5XtXdX,XcXbX8XbXbXbXbX",
"bXbXbXbXbXbXbXbXiX8XqXfXbXhXmXmX).G.G.`.'.jXVXvXSXSXHXPXIX:X8.( _ ( Y l d *.Q.b...m U U m p.}.,.u. XKX9XKXaXjXhXSXbXSXSXzXMX3X8XbXbXfXbXbXbX",
"bXbXbXbXfXiXfXiXbXtXbXqXMXfXmX+XO.A.^.^.Q.V.B.V.!.E.;X}.,.t < &.p.` i > j 0.*XoX~.@.U >.8.LX XB 4.:XGXgX:X*XW.x.C.p.a.a.i.-XVX9XfXqXbXbXbXbX",
"bXiXqXbXqXbXbXbXqXbXbXfXBXtXlXW.Q f.v.A.<.Z 2.g ;.g y 7 x 3 - q f * = - > 3 e Q.^.~.b.:.lX4X` M /.LX,X!.x.f.! W Q ! W ~ Q V.FXtXmXhXbXbXbXbX",
"bXbXfXbXbXbXbXbXqXbXMXiXBXsXlXl.} !.d.] l z l l ;.P < = d # + 3 O # % X O & < P l.c.b.:.K.L D [ xX+Xn.a.u.V.b.{.|.-X+XfX).y.MX4XmXbXbXbXbXbX",
"fXbXbXbXqXbXbXbXfXfXMXMXwX5XvXx.~ D.d.2.l l j =.y.) + # > = - O % . @ @ * o + 6 T o.r.u.,.C L 1X-XB N ^ |.zXJXvXSXFXaXjX2X(.mX4XbXbXbXmXiXbX",
"4XbXbXbXfXbXbXbXqXqX4XMXgXaXvXR.u.u.H.N.h.e.l P [ r + & = > @ ; X . @ @ % . # < n E | T 4.K I.<XC M C [.DX4XnX3X:XeX3X3X8XBXkXbXbXbXbXbXbXbX",
"bXbXbXbXiXbXbXbX8XqXmXmXqXjX1XV ..b.h.t...` h j = X * . @ = a h # *   X = # $ 1 n B Y ' ,.g m.Y c M  .].6X;XMXSXjX4XxXPXNXiXqXyXbXbXbXbXbXbX",
"bXbXbXbXbXbXbXbXfX8XfXBX5XLX9.S F [ d.r.q.p %   o : * : * # = $ # %   & # $ 9 e C ' q.Y >.3.L D >.T.t.#.h.h.@.s.O.o.+.S.1XzXCX7XbXbXbXbXbXbX",
"bXbXbXbXiXbXbXbXNX,XaXBXpXCXY.u.F Z E T R 3 a h h h ; : & - u s p . * = 5 q w R 4.l.w./ ] ' D q.w.^ Z.|.!.G.B.u.O.@.u.y.X.V.wXdXMXqXbXbXfXbX",
"bXbXbXbXfXqXbXbX4XqXbXkXfXIXE.z.w.~ N | J.l %Xk X % o o @ . 4 i i - # f r 2 H <.Y Y T ' _ Y ] E N z.MXKXJXzXzXhXCXMXAXlX-XC.-XgXbXbXbXbX4XbX",
"bXbXbXbXbXbXbXbXfXeXnXfX8XkXmX].8.q.~ | J. X%X% X * o o X . X # i q 2 s d ) >.n C F ' R.>._ S Y I.IXxX8X7XqX5XqX4XhX3X<XhXDXuXgXbXbXbXbXbXbX",
"bXbXbXbXbXbXbXfXfXbXsXMXbXiXmXzXNX<X@X+X].7.U.k X X X X * & - = 2 I ) t H G 0 V A R 4.T.i.4.E.<XHX4XnXBXfXjXjXiXjXbXSXmX4X5XqXfXbXbXbXbXbXbX",
"bXbXbXbXbXbXbXbXbXbXfX4XfXbXbXmXSXGXHXZXqXK.;.p & X > i $ < 5 s t t w q 1 0 V V c 8.L.[.;XjXPXCXmXMXbXbXbXbXbXbXbXbXbXmXmXmXqXfXbXbXbXbXbXbX",
"bXbXbXbXbXbXbXbXbXbXbXbXbXbXbXbX8XhXfXaXCX;XR.&.6 1 1 q t 9 ( =.t 5 q t V v x C E.>XAXHXDXaXtX4XbXmXbXfXfXbXfXbXbXbX8XbXbXMXbX8XbXbXbXbXbXbX",
"iXbXbXbXbXbXbXbXbXbXbXbXbXbXbXbXwXgXMXDXNXHXJXhXP.9.( I =.H J y 8 0 w 0 v K 6.:XKXPXfXtXMXkXBXVXbXbXbXbXbXfXbXbXbXbXbXbXbXbXbXiXbXbXbXbXbXbX",
"8XbXbXbXbXqXfXiXqXbXbXbXbXfXbXbX,XfXmXVXBXgXbXUXIXLXPXK.H n w 0 t 0 C =.P.,XJXAXfXMXnXMXnXbXiXbXbXqXbXqXbXbXbXbXbXbXbXbXbXfXqXbXbXbXbXbXbXbX",
"bXbXqXbXbXbXbXiXbXbXbXbXbXbXfXqXNXMXfX8XhXmXZXHXzX*XE.-._ 0 < =.) 6.-XSXHXCXbXMXgXbXbXqX9XnXbX4XbXbXbXbXbXbXbXbXbXbXbXbXbXbXbXbXfX4XbXbXbXbX",
"iXbXbXbXbXbXqXfXbXbXbXbXbXbXbXbX4XqXVXHXZXMX5X|.3.V n v H ) 2.i.}.UXAXgXbXqXVXBXMXiXpXtX0X0X8XMXbXbXbXbXbXbXbXbXbXbXbXbXiX8XbXbXbXbXbXbXqXbX",
"fXbXbXbXbXbXbXbXbXbXbXbXbXbXMXbXBX7X}.K.<.I J v c V R I =.` k.).VXMXmXBXMXDXiXbXnXfXfXbXNX4X4X4XbXbXbXbXbXbXbXbXbXbXbXbXbXbXbXbXbXbXbXbXfXiX",
"bXbXfXiXbXbXbXbXfXbXbXbXbXbXmXmXSXE.G 7 7 7 v J L U n c n =.:XJXmXSXMXmXqX7XbXfX8X7XfXiXiXfXbXmXbXbXbXbXbXbXbXbXbXbXbXbXbXbXbXbXbXbXbXbXbXbX",
"bXbXbXbXbXbXbXbXbXbXbXbXqXbXmXMXSXK.x M v Y C x c c C 6.P.U.VX7XBXmXbXbXbXiXqXiXbXbXbXbXbXbXbXbXbXbXbXbXbXbXbXbXbXbX8XbXbXbXbXbXqXfXbXiXbXbX",
"bXbXbXbXbXbXbXbXbXbXbXbXfXbXbXbXNX0X/.8.6.-.D M 7.kXfXPX[./.PXBXmXbXfXbXbXbXiXbXbXbXbXbXbXbXbXbXbXbXbXbXbXbXbXbXbXbXiXbXbXbXbXbXbXbXbXbXbXbX",
"bXbXqXiXbXbXbXbXbXbXbXbXbXbXbXbXaXjXDXKXPX8.N { a.a.5.[ y 1./.-XmXmXbXbXbXbXfXbXbXbX8XbXbXbXbXbXbXbXbXbXtXbXbXbXbXbXbXbXbXbXbXbXbXbXbXbXbXbX",
"bXbXbXfXbXbXbXbXbXbXbXiXbXbX4XbXbX0XNXpXkXAXL.,.F m S _ >.p.E.,XmXmXbXbXbXbXbXbXbXbXiXbXbXbXbXbXbXbXbXbXqXbXbXbXbXbXbXbXbXbXbXbXbXiXbXbXbXbX",
"bXbXbXbXbXbXbXbXbXbXbXbXbXbXbXbX4XeXBXZXnXaXLXjX:X}.[.+X-XmXvXqXiXfX4XfXbXbXbXbXbXbXbXbXbXfX4XbXbXbXbXbXbXbXbXbXbXbXbX8XbXiXqXfXqXbXfXbXbXbX",
"bXbXbXbXbXbX8XiXbXbXbXbXbXbXbXbX4XMXfXkXBXMX3XnXmXCXzXBXbXMX3XaXbXbXfX4XbXbXbXbXbXbXiXbXbXbXbXbXbXbXbXbXbXbXbXbXbXbXbXbXbXbXbXbXiXbXbXbXfXbX",
"bX8XbXbXbXbXbXbXbXbXbXbXbXbXbXbXiX8X8X4XbXnXMXcX8XtX4XaXmX7XVX3XbXbXbXbXbXbXfX4XbXbXfXqXbXbXbXbXbXbXfXbXbXbXbXbXbXbXbXbXiXbXbXbXbXbXbXbXbXbX",
"bXiXbXbXbXbXbXbXbXbXbXbXbXbXbXbX7XMXMXiXqX7XwXqXmXmXSXMXmXMX8XhXfXbXbXiXbXbXbXfXbXbXbXbXbXbXbXbXbXbXqXbXbXbXbXbXbXbXbXbXbXbXbXbXbXbXfXqXiXbX",
"bXbXbXfXbXfXbXbXbXbXbXbXiXbXbXbXbXbXbXbXbXbXbXbXbXbXbXbXbXbXiXbXbXbXbXbXbXbXbXbXbXfX4XbXbXbXbXbXbXbXbXiXbXiXbXbXbXbXbXbXbXiXbXbXbXbXbXbXbXbX",
"bXbXbXqXbXiXqXbXbXbXbXbXqXbXbXbXqXfXbXbXfXiXfXiXiXbXbXbXbXfXqXbXbXbXbXbXbXbXbXbXbXbXbXbXbXbXbXbXbXbXbXqXbXfXqXbXbXbXbXbXqXfXbXbXbXiXbXbXqXfX",
"bXbXbXiXbXbXbXbXbXbXbXbXbXbXbXbXbXiXbXbXqXbXbXbXfXbXqXbXbXbXbXbXbXbXbXbXbXbXbXbXbXbXbXbXbXbXbXbXfXbXbXfXbXbXbXbXiXbXbXbXiXqXbXbXqXfXbXbXiXbX",
"bXiXbXbXbXbXbXbXbXbXbXbXbXbXbXbXbXbXbXbXbXbXbXbXqXbXfXiXbXbXbXbXqXbXbXbXbXqXfXiXbXbXbXbXbXbXbXbXbXbXbXbXbXbXbXbXbXbXbXbXbXfXbXbXbXbXbXbXbXbX",
"bXbXbXbXbXbXbXbXbXbXbXbXbXbXbXbXbXbXiXbXbXbXbXbXbXbXbXbXbXiXqXbXqXbXbXbXbXbXbXiXbXbXbXiXbXbXbXiXiXbXbXfXiXbXbXbXbXbXfXqXbXbXbXfXbXbXbXbXbXbX",
"qXfXbXbXfXiXbXbXbXbXbXqXbXbXiXbXbXbXqXfXbXbXbXbXbXbXfXiXbXbXfXbXiXbXbXbXbXbXbXfXbXbXqXfXqXbXbXbXqXbXbXbXbXbXbXbXbXbXbXiXbXbXbXbXiXbXbXbXbXbX",
"bXbXiXbXbXbXbXbXbXiXiXfXbXbXbXbXbXbXqXiXbXbXfXbXbXbXbXbXbXbXbXbXfXbXbXbXbXbXbXqXbXbXbXbXfXbXbXbXbXfXbXbXfXbXbXbXbXbXbXbXbXfXbXbXbXbXbXbXbXbX",
"bXbXqXfXqXbXbXbXbXfXbXbXbXbXqXfXbXbXfXbXbXbXiXqXbXbXbXbXbXbXbXbXbXbXfXiXbXbXbXbXbXbXbXiXbXbXbXbXbXqXiXbXqXbXbXbXiXbXbXbXbXbXqXiXfXqXbXbXbXiX",
"bXbXiXfXbXbXbXbXiXfXbXbXbXqXbXbXbXqXiXfXqXbXbXbXiXbXbXbXbXbXbXbXbXbXbXbXbXiXqXiXfXbXbXbXbXbXbXbXbXfXbXbXbXbXqXiXbXbXbXbXbXbXiXbXbXbXbXfXbXbX",
"iXbXbXbXbXbXbXbXbXbXbXbXbXbXbXbXbXbXbXbXfXbXbXbXbXfXbXfXbXbXbXbXfXbXqXbXbXfXbXbXbXbXbXbXqXfXiXbXqXbXbXbXbXbXbXfXbXbXbXiXbXbXfXqXbXbXbXbXbXbX",
"fXbXbXqXiXqXbXbXbXbXfXbXiXbXbXbXbXbXbXbXbXbXbXbXbXqXbXiXbXbXbXqXiXbXqXfXbXbXbXbXfXqXbXbXbXbXiXbXbXiXbXbXbXbXbXbXbXbXbXbXbXbXbXbXbXfXqXbXbXqX",
"bXbXbXbXfXbXbXbXbXbXqXbXfXbXbXbXbXbXbXbXiXbXbXbXbXbXbXbXbXbXfXiXbXbXbXbXbXbXbXbXbXiXbXbXbXbXbXbXbXbXfXbXbXbXbXbXbXbXbX8XbXbXbXbXbXbXiXbXbXiX",
"bXbXqXiXbXbXbXbXbXbXbXiXbXbXbXbXiXqXbXbXbXbXfXbXbXbXbXbXbXbXbXbXbXiXbXbXbXbXbXiXbXbXbXiXbXqXbXbXqXiXbXbXbXiXqXfXbXbXbXbXbXbXbXbXbXfXbXbXfXbX",
"bXbXfXbXbXbXbXbXbXfXbXbXqXiXbXbXbXfXbXbXbXiXqXbXbXbXbXfXbXbXqXiXbXbXbXbXbXfXqXbXbXbXbXbXbXfXbXbXfXbXbXbXbXbXbXbXbXiXbXbXbXbXbXbXbXqXiXbXbXbX"
};
