/* XPM */
static char *result[] = {
/* columns rows colors chars-per-pixel */
"70 70 228 2 ",
"   c #020302",
".  c #050904",
"X  c #0B0B05",
"o  c #0C0D0B",
"O  c #060909",
"+  c #130E0B",
"@  c #0E110A",
"#  c #12130C",
"$  c #1C1A0D",
"%  c #151408",
"&  c #090D11",
"*  c #0D1214",
"=  c #141513",
"-  c #1B1B14",
";  c #1C1D1A",
":  c #161817",
">  c #100F15",
",  c #221E14",
"<  c #211E19",
"1  c #201E0F",
"2  c #1E211C",
"3  c #1E2116",
"4  c #26240E",
"5  c #222215",
"6  c #23231C",
"7  c #29261C",
"8  c #2B2A1D",
"9  c #2A2816",
"0  c #312D1E",
"q  c #33321E",
"w  c #3A351B",
"e  c #2E301A",
"r  c #1B1E20",
"t  c #1C2427",
"y  c #1B2932",
"u  c #242623",
"i  c #252925",
"p  c #2C2C24",
"a  c #2A2C2A",
"s  c #222C2B",
"d  c #322E24",
"f  c #2D3223",
"g  c #2D322A",
"h  c #333325",
"j  c #3C3A23",
"k  c #33332C",
"l  c #3C3C2D",
"z  c #383727",
"x  c #333531",
"c  c #353933",
"v  c #3B3C33",
"b  c #3C3C3A",
"n  c #35383A",
"m  c #2D3536",
"M  c #423D2C",
"N  c #423C24",
"B  c #433E36",
"V  c #43391E",
"C  c #3E4136",
"Z  c #3D422D",
"A  c #43412D",
"S  c #4A462D",
"D  c #434334",
"F  c #4A4634",
"G  c #4B4935",
"H  c #43443B",
"J  c #4D4C3B",
"K  c #48473B",
"L  c #524D3A",
"P  c #524B36",
"I  c #52513C",
"U  c #5A563B",
"Y  c #50492D",
"T  c #605B3D",
"R  c #6A623D",
"E  c #323D44",
"W  c #3B4446",
"Q  c #3A4A5A",
"!  c #454A44",
"~  c #4B4C44",
"^  c #4B4E4B",
"/  c #454744",
"(  c #514D43",
")  c #4D524C",
"_  c #4C5147",
"`  c #545344",
"'  c #5B5444",
"]  c #5B5A44",
"[  c #53544C",
"{  c #5B574B",
"}  c #5B5B4B",
"|  c #575943",
" . c #4E5352",
".. c #5C5B53",
"X. c #565A56",
"o. c #625E4B",
"O. c #625A44",
"+. c #625F51",
"@. c #5D625A",
"#. c #5D6148",
"$. c #64624C",
"%. c #6A654C",
"&. c #6A694B",
"*. c #716B4E",
"=. c #646354",
"-. c #6A6553",
";. c #6C6A54",
":. c #64655B",
">. c #6A6B5B",
",. c #65685A",
"<. c #736D55",
"1. c #756E5B",
"2. c #74725B",
"3. c #7A755C",
"4. c #7B7858",
"5. c #595D60",
"6. c #596165",
"7. c #6D6E62",
"8. c #6A6D6B",
"9. c #666765",
"0. c #6B7268",
"q. c #747363",
"w. c #7A7663",
"e. c #7C7A64",
"r. c #7C7A6A",
"t. c #747469",
"y. c #6D6F71",
"u. c #737473",
"i. c #797B79",
"p. c #706C61",
"a. c #817A5C",
"s. c #837D67",
"d. c #7C8174",
"f. c #87815F",
"g. c #84836C",
"h. c #8A856B",
"j. c #8B8A6E",
"k. c #878364",
"l. c #928C6C",
"z. c #918E63",
"x. c #97916D",
"c. c #898573",
"v. c #878877",
"b. c #938C73",
"n. c #928E7A",
"m. c #949274",
"M. c #9A9679",
"N. c #A39C7A",
"B. c #A5A67E",
"V. c #797E82",
"C. c #7E8384",
"Z. c #878987",
"A. c #949484",
"S. c #9C9983",
"D. c #9A9987",
"F. c #8D9596",
"G. c #989A99",
"H. c #8C9089",
"J. c #A29D87",
"K. c #9EA09D",
"L. c #A5A184",
"P. c #A9A484",
"I. c #AAA68B",
"U. c #B8B38C",
"Y. c #ADAB93",
"T. c #A6A597",
"R. c #B2AD97",
"E. c #B5B49C",
"W. c #BAB699",
"Q. c #B2AF8B",
"!. c #9A9EA1",
"~. c #9EA5A5",
"^. c #A7AAA7",
"/. c #AFB1AF",
"(. c #B9B8A7",
"). c #AFB5B4",
"_. c #B5B7B7",
"`. c #AEAFB1",
"'. c #C1BC9B",
"]. c #C2BEA8",
"[. c #BFC0B4",
"{. c #C8C39F",
"}. c #CCC7A8",
"|. c #D2CDAC",
" X c #D4CEB3",
".X c #DAD7B9",
"XX c #CACABB",
"oX c #E0DBB9",
"OX c #EBE4BC",
"+X c #B9BEC1",
"@X c #BDC2C4",
"#X c #C4C5C4",
"$X c #C7CACA",
"%X c #CFD1C7",
"&X c #DBD9C3",
"*X c #CFD3D5",
"=X c #D4D5D5",
"-X c #DDDDDD",
";X c #D7D9D8",
":X c #CDCFD3",
">X c #E2DDDC",
",X c #E2DFC5",
"<X c #DFE1DD",
"1X c #EAE6C6",
"2X c #E2E1DF",
"3X c #EBEAD2",
"4X c #F5F1D7",
"5X c #DEDEE2",
"6X c #E1DFE2",
"7X c #DEE2E3",
"8X c #DEE6E9",
"9X c #E1E1E1",
"0X c #E9E9E6",
"qX c #E5E6E9",
"wX c #E6EAEA",
"eX c #EAEBEB",
"rX c #E8E7E5",
"tX c #EEF2EF",
"yX c #F8F7EC",
"uX c #EDEEF1",
"iX c #F1EFF2",
"pX c #EFF2F3",
"aX c #F3F4F4",
"sX c #FEFDF3",
"dX c #F6F9FA",
"fX c #FCFDFB",
"gX c #F7F7F8",
"hX c #F0EDE8",
/* pixels */
"9X9X9X9X9X9X<X9X9X9X9X9X9X9X9X7X7X2X9X9X9X9X9X6X9X9X9X9X2X9X9X9X9X9X9X9X9X9X9X9X9X9X2X9X9X9X9X9X9X9X9X7X9X9X9X7X9X6X9X9X9X9X9X9X9X9X9X9X9X6X",
"9X9X9X9X9X6X9X9X9X6X9X9X9X9X9X>X9X9X9X6X2X9X2X7X2X9X9X9X6X7X9X9X9X>X9X9X9X9X9X9X6X7X9X9X9X6X9X9X9X9X9X6X9X9X9X9X2X9X2X9X7X>X9X9X9X2X9X9X9X2X",
"9X9X9X9X9X9X9X9X9X9X9X9X9X9X9X9X2X6X9X9X9X9X6X9X>X9X6X9X2X9X9X9X9X9X9X9X9X9X9X9X9X9X9X9X9X9X9X>X9X9X9X2X9X9X9X9X9X9X9X6X9X9X9X9X9X6X9X9X9X2X",
"9X-X9X9X9X9X2X9X9X9X7X>X9X9X9X9X9X9X9X9X9X9X9X9X7X9X7X2X9X9X9X9X7X9X9X9X9X9X9X9X9X9X9X9X9X2X9X7X9X9X9X9X>X7X9X2X9X9X9X9X6X7X9X9X7X2X9X6X7X9X",
"9X9X9X9X9X9X6X9X9X9X9X9X9X6X9X2X9X9X2X9X7X>X9X9X9X9X9X9X9X5X-X9X9X9X9X9X9X9X9X-X9X9X9X9X9X9X9X9X6X9X9X9X9X9X6X9X9X6X9X9X2X9X9X9X9X2X9X9X9X9X",
"9X9X5X2X9X9X9X9X9X9X9X9X7X9X9X9X7X9X6X9X9X9X9X9X9X9X9X9X2X9X9X9X9X9X9X9X6X9X9X9X9X9X7X>X9X9X9X9X2X9X9X9X9X7X9X9X9X2X9X9X9X9X9X9X9X9X9X9X9X9X",
"9X9X9X9X9X6X9X2X9X9X7X>X2X9X9X9X6X2X9X9X9X9X9X9X6X9X9X-X9X9X9X9X-X9X9X-X9X9X9X9X9X9X>X7X9X9X9X9X9X7X>X9X6X9X9X9X9X9X9X9X7X9X9X6X6X9X9X9X9X2X",
"9X9X9X9X2X9X9X7X9X7X9X9X9X6X9X9X9X9X9X9X9X9X9X2X9X2X9X9X9X9XqXrX9X9XrX9X9XqX9XrX9X9X9X9X9X9X9X9X9X9X9X9X9X2X9X9X7X9X9X6X2X9X9X2X2X7X9X9X6X9X",
"9X9X9X5X2X9X9X9X6X9X9X7X2X9X9X9X2X9X-X9X7X9XqX-X9X9X7X9X6XqX>XqX2XwX8X2X9X8X9XrX-X7X9X2X-XqX9X9X9X9X9X9X9X9X9X>X2X6X9X2X7X2X9X9X9X9X9X2X9X9X",
"9X9X9X2X5X9X9X9X9X2X9X9X6X9X9X9X-XqX-X0X0X-X9X9XrX;XrX>X9X9X9XhX0X9X0X2X<XpXuX9X9X9X-XrX9X-X>X9X<X9X9X9X9X7X9X9X9X9X9X9X6X9X9X9X9X9X9X6X7X9X",
"9X2X9X9X9X9X9X9X9X9X9X2X9X9X9X9XrX5X9X-XwXqX;XrX-X6XqXqX;X0X=X=XsX9XwX6XwX@X@X<X5X9X9XqXeXuX2X<X9X9X9X-X9X9X9X9X9X9X9X9X9X9X9X9X9X9X7X2X2X9X",
"9X9X9X9X9X9X9X9X9X9X9X6X9X9X6X2X9X;XqX0XeX-XrX9X9X9X9X0X=XeXG.^ yX7XeXeX7X6.W *X9XrXeX9X7X;XeX<X9X9X6X9X9X9X9X9X2X9X9X6X7X2X6X9X2X6X9X9X6X9X",
"5X9X9X9X-X9X9X9X9X9X9X6X7X9X9X9X6XrXrX#X#X0X-X-X9X-XrX0X9XfXu.# ..E _.fX@XW y ~.aX-XtX9XtXaX<X2X9X9X9X9X9X9X7X9X9X9X9X9X9X9X9X9X9X9X9X9X2X9X",
"9X9X9X2X9X9X9X9X9X9X9X9X2X6X2X9XeX;XeXC.u #XqXrX0X9XqX0X-XhX[ = v i W @X~.E y @X0XqXdXK.u./.8X8X9X9X6X9X9X9X9X9X9X2X9X9X2X6X9X9X9X2X6X9X9X9X",
"9X9X9X9X9X9X9X9X9X9X9X9X9X9X9X9XiX-X0Xi.  `.qX-XeX9X9XeXeXrXk i F H / W F.W Q pXqX9X^.X._ c ~.8XqXqX9X9X6X>X<X9X6X9X2X6X9X9X9X9X9X9X7X9X6X9X",
"2X9X5X9X9X9X9X2X5X9X<X9X9X9X6X9XeX-XeX8.  _.0XrXeX9XeX5XaX$X- k M h x C 8.y ).tXqX:X~ K d.! ) 7X0X0XqXrX2X7X6X9X9X9X7X9X9X6X2X9X9X6X2X9X9X9X",
"9X9X9X9X9X9X9X9X9X9X9X6X9X9X9X9X0X-XeXy.  `.qX>XiX-XeX9XgX/.# C v q ` 7 ` m F.aXwX!./ U $.W Q =XqXrX0XrX5X7X9X<X9X9X9X2X9X9X9X6X9X9X6X9X9X7X",
"9X9X9X9X5X2X9X9X9X9X9X9X9X9X9X9XeX-X0Xu.  ~.iX>XeXrXrXeX^.~ - h C G v.q.Z X.y.9X6X8.^ U *./ E =XgX0XeXqX-X9X5X9X9X9X9X9X9X9X9X9X9X9X2X9X6X2X",
"9X9X2X9X9X9X9X9X9X9X9X9X2X9X2X9XeX-XeXy.O u.qX6XuXeXeX;Xu O 6 k G j h.Q.I ,.K #X=X@.X.' %.~ E G.T._.eX-XqX7X9X9X9X9X9X6X9X2X9X2X9X9X6X9X9X9X",
"9X5X9X9X9X>X7X9X6X<X9X9X7X6X9X9XeX-XtXu.& ^ =XqXaX0XgXG.  ; $ l ;.$.}.U.| >.] _.G.) ` B %.../ -.t.~ ~.eX9X0X9X-X9X9X7X9X9X6X9X7X9X9X2X7X9X9X",
"9X9X9X2X9X9X9X9X5X2X9X9X9X9X9X9XeX;XaXV.& W $XpXaXrXaX[   - 8 D <.(.}.U.%.] I A.q.D =.M O.o.+.J.7.) W @XwX>XeXrX9X9X9X2X9X9X9X9X9X9X9X9X9X9X",
"9X9X9X6X9X9X7X9X9X9X9X9X9X2X9X5XeX-XgX8.. W /.dXiXaX;X= . - h L ] <.*.l.&.$.P w.,.I ` D O.B <.<.e @.y ^.dX-X0X5X9X9X6X9X9X9X2X6X9X9X9X9X9X9X",
"9X6X9X7X9X9X>X9X9X9X9X2X9X9X9X9XiX-XgX+.X ! H.fX$X#XH.@ < 7 0 A ;.%.P 4.M.s.-.3.e.<.` ~ L O.'.3.%.C ! 8X9XrXrX7X7X2X9X9X9X6X9X9X9X9X9X9X9X9X",
"9X2X9X9X9X9X9X9X9X9X9X9X5X9X9X9XiX=XfXu.o [ i.fXZ.^.8.  u d L <.,.%.9 M ;.e.l *.e.J.;.k o.A.b.a.<.Z X.8X9XrXrX5X9X6X9X9X9X2X7X9X>X7X9X9X2X6X",
"9X9X7X>X9X9X9X>X9X9X9X9X9X9X9X9XuX-XgXu.- ~ d.%X@./.)   3 z D 3.c.7 7 7 l M <.M.1.}.;.D s.l.Y +.1.h u.dX7X0X9X>X9X9X9X6X2X9X9X9X9X9X9X9X9X9X",
"9X9X9X9X2X6X9X7X9X9X9X9X9X9X9X9XiX;XgXi.@ [ 7.D.9.(.c   f l ' %.P % l 7 K 9 r.I.1.m.} d h.a.P s.;.C 0.^.;X0X-XqX9X2X9X7X9X9X9X9X9X>X9X9X7X9X",
"9X9X9X9X9X9X9X9X9X9X9X9X9X9X9XqXrXeX;Xb   [ >.A.d.E.5 . 9 J P d.I.0 -.9 q w.4 G 2.g.=., b.O.B 1.;.( @. .*XeX0XqX9X6X9X2X2X7X6X2X9X7X2X6X9X9X",
"9X9X9X9X9X9X9X9X9X7X9X9X9X9X9X0XrXhX`.= o c } q.D.E.z ( g.j w k.XX;.J j j L.' 5 <.K < N J.L B a.&.} ) 6.5XeX9X9X9X9X9X9X6X9X9X9X9X9X9X9X6X2X",
"7X6X9X9X9X7X6X2X9X9X9X9X9X9X9X0X-XuX`.: : O v K D.E.v.o.M.J.p.e.S.] N ;.S $.%.$ j % X P J.0 >.&.<.2.) Z.uX5X7XqX6X9X9X2X9X9X9X9X9X9X9X9X7X9X",
"9X2X9X9X9X>X7X9X9X9X9X9X9X9X9XqX9XiX*Xy.a o k [ v.&XI.w P.&XY.;.w.G -.} ] G , 9 1 M X J.*.} G.U g.A. .~.uX-XwX9X9X9X9X9X9X9X2X9X2X9X9X9X>X9X",
"9X9X9X2X9X9X9X9X9X9X9X9X9X9X9X9XqX-XaXG.8.i - ..u.#.&.L.x.W.sXc.$.C 1 M F s.-.0 J.4 M J.P.sX_.g.h.S.! @XpXqX9X>X9X9X9X9X7X9X9X6X7X6X9X9X9X9X",
"9X9X9X6X9X9X9X9X>X9X9X9X7X9X9X>X0X-XfX).! ) @ =.! [ I g.M.l.sX%XG F d D } s.{ q U T O.4X&XyX-X@.4.g.X.).aX;XiX2X7X2X9X6X2X9X9X9X9X9X9X9X9X9X",
"9X9X6X9X2X9X6X2X9X9X9X9X2X9XqX-XrX7XyXY.P.2.f #.a r.j m.z.U yX}.C 9 u - ] I D j N R a.R.hXsXD.l n.1.( ^.dX=XtX5X9X9X7X2X9X9X9X9X6X9X2X9X9X9X",
"9X9X2X7X9X9X9X7X9X9X9X9X9X2X9X9XrX$X(.Y.Y.J x C J &.&.M.m.w }.L.5 - b 3 G D.q.*.'.B.'.' fXrXA.+.B P H 8.8X7XrX9X9X9X9X9X6X9X2X9X7X9X9X9X6X9X",
"9X9X9X2X9X9X9X9X9X9X9X-X9X9X9XqX9X<X,.g.I # [ f U W.P.I.s.N x.S f @ X.r.m.(.D k. X1XM.(.fX$X .a J c.h u Z.wXrXeX9X9X9X9X9X9X9X9X9X9X9X9X9X9X",
"9X9X9X9X6X9X9X9X9X9X9X9X9X-X9XrX2X0XK.I ( 5 x C ;.Q.|.3.] k.l.s.c C X.v.m.n.N L. XQ.1X1XsX].x K J q.h r u.wX-XeX9X9X2X9X7X9X9X6X9X9X9X9X2X9X",
"6X9X9X7X9X9X2X9X9X9X-X9X9X9X9X0X;XdX5X9.w.f C f >.E.'.l.s.'. Xc.X 7.X.n.L.J d '.a.OXyXk.T.T.^.w.l A l ; V.fX-X0X9X9X9X9X2X9X9X2X9X9X9X9X9X9X",
"2X9X6X2X9X9X9X6X9X9X6X9X9X9X9XqX3XpXV.x e I l @.G.h.'..XW.Q.h.F i D.l R.e.9 d 9 T I.|.W.R.].(.|.w.;.=.  F.pX;XpX9X9X9X9X9X6X9X9X9X2X7X>X9X9X",
"9X9X9X9X9X9X9X9X9X9X9X9X7XrXqX9XwX_.m 8.| ` k K.sXS I.1Xh.Y ' z 5 (.].XXM.- g 5 A j q 1 A.u.0 OX&X&X].t !.eX-XeX>X7X6X2X2X9X9X9X6X9X9X9X7X6X",
"2X9X9X9X9X6X2X9X9X7X9X2X>XqXqX9XuXC.* h z M ! H L.S.U.oX Xc.A.B l 4.4X,Xh.k u p 8 x p < - > $ W.,XP.&X^ $XeX;X0X9X9X9X9X7X9X6X9X9X9X9X9X2X9X",
"6X9X9X9X9X9X9X9XqX;XqX<X9X9XeXrX8X6.> M A =.n.w.D.Y.4.|.oXU.l.+.O.3.4X&X` 6 ; 2 ; 6 g 2 ; = , ].1X-.v.7.@XpX<XqX9X9X9X9X9X9X9X9X9X9X9X9X7X>X",
"9X9X2X9X6X9X7X2X5X9X2X>X9XqX0XrXwXZ.X h h 3 7...J.W.4.I.oX|.I.R.{ h.1X3Xg.9 6 3 ; 6 6 6 O o % j 3.] 8 v.@XwX2X0X9X9X9X7X9X9X9X9X9X9X9X9X9X9X",
"9X2X6X9X9X9X6X9X9XrX-X9XqX6XqXaX=X3Xm.K c ^ g % ' g.h.N s.1XoXo.<.U I..XP.;.K 2 ; # 6 2 ; = 8 L 5 5 # ^ 7XeX2X0X9X9X9X2X9X9X>X9X9X9X9X9X9X9X",
"9X7X9X9X9X9X9X2X9X2X2X2X9XeX-XqX:X} v.z C d.M.S.h.s.b.~ % o.4XD.a.4.&.M.M.M.h : @ 2 # p a 2 p - k # 6 ^ _.uXtX9X9X9X6X9X9X9X9X9X>X7X9X9X9X9X",
"9X9X6X9X9X9X2X9X9X;XrXqX6XeX2X:X{ = k d @.I e.&.L l.j.k ~ < w.T.|.3X|.N.1X<.9 6 o C ; @ 3 ; b 8 D D ,.X.Z.pX;X0X9X9X9X9X7X9X9X6X9X6X9X9X9X9X",
"9X9X2X9X9X6X7X9X>XqX-X9XqXyX$Xv.<.7 [ e.M.v.' M.I G | ` v 6 7.W.P.OXQ.*.b.<.i ; @ a 6 X = . v 5 p | q.,.K.fXqXqX9X9X9X9X9X9X9X2X9X9X9X9X9X6X",
"9X9X9X7X9X9X9X>XqX-X6XuX=XgXG.= k.Z G =.,.,.1.S.p.~ _ l v k r.|.1X|.l.f.w.p X - O a v ; - h 5 7 ~ 4 P F v.XX:XwX9XrX9X9X9X9X9X9X<X9X9X6X9X2X",
"9X9X9X9X9X9X9X9X-X9XrXeX9XrX[ - ] *.j.w.Z.>.j.M.5 v i Z K b R.B. Xx.a.;.l O o = * i x 3 7 } K 8 H 3.] S 4.n.u.<X9X9X9X9X6X9X9X9X9X9X9X9X9X9X",
"6X9X7X2X9X9X9X9X9X-XqXrXwX#XD $ J.P s.} e.].s.<.z Z 9 D g l ].U.x.b.<.%.h   O o = < p ; - $ z l h d w.] S.0.@.wX5XwX9X9X9X9X9X9X9X9X9X2X6X9X",
"2X9X9X6X9X9X9X9X<XrXqX9XuXZ.Z.D -.J ` >.,.J <.%.v.g.>.D v % <.{.z.W.<.$.w.X > > O p = # @ ^.' d H , 8 J ` p d.uX9XqX9X9X9X9X9X9X9X9X9X9X9X9X",
"9X9X9X9X9X9X9X9X6XqX0X;XaXt.@.Z   ..k ^ 0.8 F s.;.M M $.K 7.(.b.B.W.G N q Z = * = a 6 % h 5 % M x k B ^ ..g C.wX9XqXrX9X9X9X9X9X2X6X9X2X9X9X",
"2X9X9X9X>X7X9X9X-X9XeX2XaXi.. @ = - : / 9.- - 8 L F L ' ] D.(.P.h.P 1.4.&.A 7 p o : : X >.H . ` c < d ,._ m H.pX5X0X9X-X9X9X9X9X9X7X9X6X7X2X",
"6X9X9X9X9X6X9X9X9XrX0X9XuXC.u 6   5 - x v u < k # 7 ' s.d R.W.M.I.k.x.f.-.( H p   : o 7 h K p [ b + D ] 2._ X.qX5X0X9X9X9X9X9X9X9X9X9X9X9X>X",
"9X9X9X2X9X9X9X9X5X9XeX>XgXZ.g u . - ; 6 / u O = x p +.s.' b.I.n.3.U.OXQ.B b x - < u - < D < h [ ; < G P M.v  .qX2XqXrX-X9X9X9X9X9X9X9X9X9X9X",
"9X6X9X9X9X9X9X6X6X9XrX;XdX).u.X.: p ; # [ / X a 7 +.' +.I.n.n.w.O.].N.P k u p = 5 h u $ k - J n : L h q $.6 8.qX5X0XqX2X9X9X9X9X6X2X9X9X9X9X",
"7X2X9X9X9X<X9X9X6X9X6XrXqXwXfX^.r u x = H ~ x g l +.' L n.v.C H $ b.1.d a h p 6 x l B n ; @ K p # C ' X.[ ; 0.aX-XwX9X9X9X9X9X9X9X9X7X9X9X9X",
"9X5X9X9X9X9X9X9X9XqX9X9X9XeX9XeX .& y ; u ../ , k 8 9 M e.l g a % + [ k x n r > u x 2 u . . t ; # x n H n m ^.qXqXrX9X9X9X9X9X9X2X9X9X9X9X9X",
"9X9X9X2X2X9X9X9X6X5X9X9XqXeX0XaX6.O > = = ; # : ; 7 - t.=.3 k o v ..[ b a ^ X. .6.9.X. .m r >     u c 8.G.-XaXrX9X9X9X9X9X9X9X9X9X6X9X9X9X6X",
"9X9X9X9X9X9X2X5X9X9X9X-X9X0X0XaXF.* * O O   O u r = a ; X H ! d.^.#X$X:X+X=XwXwXqXwX9X7X$X_.!.Z.^.$XqXfXaXeX;XqX9X9X9X9X9X9X9X9X2X7X9X6X2X7X",
"9X2X9X9X9X5X9X9X9X9X9X9X9XqX9X0XwXF.O *     & * & & : m i.#X;XaXaXqXiXeXuXeXqX5XqXqX9X9X0XaXuXgXgXeXqX;X-X2XeX-X2X6X9X2X6X9X9X9X9X9X9X9X9X9X",
"9X9X5X9X9X9X9X9X<X9XrX9X9X9X9XqXeXwX5.r > E : t E 6.C.+X7XwXtX9X9X9XrXqX5X2XqXeXqX0XqXqX0X9X-X6X5XqX6XqXaXqX2X2X9X9X9X9X9X7X9X9X9X9X9X9X9X9X",
"9X9X2X9X9X9X9X9X9X5X9X-X9X9X9XrX9XwX9X;X:X*X5X=X8XpXpX9XrXqX2XrXwXrX>X0XqXrXrX2XqXrX2XrX0XqX0X0XuXqXqXrX;X9XrX;X9X9X9X9X9X2X2X6X9X6X2X9X9X9X",
"7X9X9X9X9X9X9X9X9X6X9X9X9X-X9X6XrX0X6XeXwXqXrXeX9X-XwX<XrXqXqX6XrX<X9X-XqX-X2XqX5X9X5X6X9X9XrX9X>X-XrX-XqX2X-XrX7X2X9X9X9X9X9X9X7X2X9X9X9X9X",
">X9X9X9X9X9X9X9X9X-X9X-XrX-XqX-X>X9XeXqX7XeXqXqX0X0XeXrXrX>X6XrX-XqX9X9X9X6X9X-X6X6XrX6X6X9X9X9X9X2X-X9X5X>X7X9X6X9X2X6X9X9X9X9X9X9X9X6X2X9X",
"9X9X9X9X9X9X9X9X9X9X9X9X7X6X9X9X9X9XqXqX0XqXrXqXqXrX9X9X9X9X2X9X9X9X9X9X9X2X9X2X9X9X2X6X9X9X9X9X9X7X>X9X9X9X9X9X9X9X9X9X9X9X6X9X2X9X9X9X7X9X",
"9X9X9X9X9X9X6X7X9X9X9X9X9X9X2X9X-X9X9X2X9X9X9X9X9X2X9X9X6X9X9X9X9X2X6X9X9X7X6X9X9X7X9X9X6X9X9X9X9X>X7X9X9X9X9X9X9X>X9X9X7X9X9X9X9X9X9X9X9X6X",
"9X9X9X>X9X9X9X9X9X9X9X9X2X9X9X9X9X9X2X9X7X6X7X9X9X9X9X7X-X9X9X9X9X9X2X7X6X9X9X9X6X2X9X9X9X9X9X9X9X9X9X9X9X2X9X7X9X7X9X6X9X2X9X9X7X9X9X9X9X9X",
"9X9X9X7X6X9X9X2X>X7X9X2X9X9X9X6X9X9X9X-X>X9X9X9X2X7X>X9X9X6X9X9X9X9X6X9X2X9X9X9X9X9X9X9X9X<X9X9X9X9X9X9X9X9X9X6X9X9X2X9X6X9X9X9X>X9X9X9X9X2X",
"9X9X9X9X9X2X9X9X9X9X9X9X9X9X9X9X9X6X9X9X2X9X9X9X9X9X9X9X9X9X9X2X2X9X6X9X9X9X6X2X9X9X9X9X9X9X9X6X9X9X7X9X9X6X9X9X2X9X9X9X7X9X9X9X2X7X9X2X9X9X",
"9X9X9X>X9X9X7X9X9X9X6X9X2X6X7X9X9X9X9X9X7X9X9X>X9X2X9X9X9X9X9X5X9X9X9X9X9X9X9X7X7X9X6X2X9X2X9X9X9X9X>X9X9X9X9X2X9X9X9X9X6X9X9X9X6X9X9X6X9X9X"
};
