/* XPM */
static char *result[] = {
/* columns rows colors chars-per-pixel */
"50 50 229 2 ",
"   c #001027",
".  c #00152B",
"X  c #00192E",
"o  c #001731",
"O  c #001D33",
"+  c #0A1E36",
"@  c #041F39",
"#  c #131F32",
"$  c #012136",
"%  c #002339",
"&  c #0A263C",
"*  c #06293D",
"=  c #0B293D",
"-  c #1E2D3F",
";  c #16293C",
":  c #19303E",
">  c #0D2A42",
",  c #0B2643",
"<  c #132D44",
"1  c #1A2E43",
"2  c #142E48",
"3  c #153146",
"4  c #1A3147",
"5  c #153249",
"6  c #1A344B",
"7  c #1D3A4E",
"8  c #1B3551",
"9  c #23394D",
"0  c #2B3C4D",
"q  c #20364D",
"w  c #233B54",
"e  c #2B3E54",
"r  c #253D59",
"t  c #2E3F6B",
"y  c #3B3B74",
"u  c #333F6A",
"i  c #2A435C",
"p  c #2B4255",
"a  c #354454",
"s  c #37485A",
"d  c #384A62",
"f  c #3A526C",
"g  c #3C5166",
"h  c #344C76",
"j  c #3C5575",
"k  c #2F4A62",
"l  c #404759",
"z  c #404B6E",
"x  c #4A5465",
"c  c #42566D",
"v  c #4A576B",
"b  c #535C6D",
"n  c #585B6F",
"m  c #434878",
"M  c #455A74",
"N  c #475A77",
"B  c #515C72",
"V  c #51616E",
"C  c #4C657C",
"Z  c #58657A",
"A  c #626B7E",
"S  c #63677B",
"D  c #3F4280",
"F  c #494A86",
"G  c #495584",
"H  c #585986",
"J  c #565B96",
"K  c #444594",
"L  c #4A6482",
"P  c #5A6D85",
"I  c #596587",
"U  c #5B728A",
"Y  c #5C7394",
"T  c #666A8D",
"R  c #656B86",
"E  c #687588",
"W  c #72778C",
"Q  c #6A6D94",
"!  c #676899",
"~  c #6E7292",
"^  c #677897",
"/  c #767D91",
"(  c #73769B",
")  c #797D9C",
"_  c #717790",
"`  c #565AA9",
"'  c #4D5AB8",
"]  c #515CB8",
"[  c #4B50AB",
"{  c #536AA5",
"}  c #5366AF",
"|  c #5569AC",
" . c #5A6EAC",
".. c #5C71AC",
"X. c #5D73A3",
"o. c #5566B1",
"O. c #5B6BB3",
"+. c #5967B8",
"@. c #5E73B4",
"#. c #4F63AF",
"$. c #6A6CAC",
"%. c #6769A6",
"&. c #657AAE",
"*. c #657AA8",
"=. c #7679A6",
"-. c #6276B2",
";. c #657AB5",
":. c #6A7DB4",
">. c #6E72B5",
",. c #767BBC",
"<. c #757AB2",
"1. c #6067BD",
"2. c #535EC4",
"3. c #575DCD",
"4. c #595FD7",
"5. c #5D67C7",
"6. c #6267CA",
"7. c #6B7FC3",
"8. c #6676C6",
"9. c #6369D6",
"0. c #6B7BD3",
"q. c #6F76DF",
"w. c #6A74D8",
"e. c #747EDF",
"r. c #797EDF",
"t. c #5E63E5",
"y. c #666BE5",
"u. c #6466E6",
"i. c #6A71E6",
"p. c #7074EC",
"a. c #737AEA",
"s. c #747CE5",
"d. c #6E70F0",
"f. c #7379F2",
"g. c #6968F2",
"h. c #7D839C",
"j. c #7B8395",
"k. c #678198",
"l. c #7989A9",
"z. c #6C82BB",
"x. c #6D82B5",
"c. c #7E83B5",
"v. c #7185BC",
"b. c #7C80BE",
"n. c #768BB8",
"m. c #7B93BA",
"M. c #748CAA",
"N. c #6E80CB",
"B. c #768BC1",
"V. c #7587C7",
"C. c #7D94C1",
"Z. c #7B90C9",
"A. c #6E81D1",
"S. c #7787D8",
"D. c #7A87E7",
"F. c #7D86F3",
"G. c #81879F",
"H. c #848CA6",
"J. c #8A91A4",
"K. c #8B91AD",
"L. c #9198AB",
"P. c #858DBD",
"I. c #878AB5",
"U. c #8C93B4",
"Y. c #8798BA",
"T. c #939BB2",
"R. c #9299BC",
"E. c #8CA1BB",
"W. c #99A7BA",
"Q. c #8689C8",
"!. c #8F96CF",
"~. c #8699C6",
"^. c #939BC4",
"/. c #949DC9",
"(. c #8C9EDB",
"). c #8B97D8",
"_. c #959CD7",
"`. c #8BA2C8",
"'. c #96A2C4",
"]. c #9BA5C5",
"[. c #9BAAC5",
"{. c #9BA6CB",
"}. c #97AACA",
"|. c #92A2DC",
" X c #91A9DA",
".X c #97A8D5",
"XX c #9AB1D6",
"oX c #A3ADC4",
"OX c #A2ADC9",
"+X c #A8B2C2",
"@X c #A5B3CC",
"#X c #ACB6CB",
"$X c #AAB6D2",
"%X c #AEBDDB",
"&X c #A2BBD5",
"*X c #B1BCD3",
"=X c #A9B0D4",
"-X c #8289E9",
";X c #8692EF",
":X c #8891E2",
">X c #9199E8",
",X c #878DF3",
"<X c #8992F3",
"1X c #8B95F6",
"2X c #959DF8",
"3X c #97A6E9",
"4X c #9EB1EE",
"5X c #9BA3FA",
"6X c #A1ACE6",
"7X c #A5B6E8",
"8X c #B6BCE6",
"9X c #A7B5F4",
"0X c #A4ACFA",
"qX c #B4C0D4",
"wX c #BDC9DB",
"eX c #BCC5D9",
"rX c #AAC2E6",
"tX c #BEC4E4",
"yX c #BCCAE5",
"uX c #BAC8FA",
"iX c #C1CBDD",
"pX c #C4CEE3",
"aX c #C4D4EB",
"sX c #C8D5E8",
"dX c #C0CEFC",
"fX c #C7D6F4",
"gX c #D4E3F2",
"hX c #D3E4FB",
"jX c #DAEBFD",
/* pixels */
"% % % % % % % % % % % % % % % % % % * % $ X = p f j h i > X . % % % % % % % % % % % % % % % % % % % ",
"% % % % % % % % % % % % % % % % * O . o k k.`. X X X X X`.x.M + . % % % % % % % % % % % % % % % % % ",
"% % % % % % % % % % % % % % % % X 3 N m.`.Z.B.B.z.B.B.B.~..XXX`.c X $ % % % O % % % % % % % % % % % ",
"% % % % % % % % % % % % % % O X C Y.~.C.z.x.x.@.@.;.@.z.:.v.v.~.rXl.$ O * % % % % % % % % % % % % % ",
"% % % % % % % % % % % % % O , M.~.x.x.x.z. .@.@. . . .@.@.@.:.n.~.rXE.+ % % % % % % % % % % % % % % ",
"% % % % % % % % % % % % $ > n.m.&.;...@.| { #.#.} O.o.o.o.O...-.n.C.7Xm.  * % % % % % % % % % % % % ",
"% % % % % % % % % % % % X ^ `.x.z.{ @.A.8.#.' ' 2.5.#.' ' o.| ..:.n.n.rXN   * % % % % % % % % % % % ",
"% % % % % % % % % % % $ 3 m.C.Z.V.N.S.D.D.w.4.t.u.w.4.4.3.2.' o.@.x.x.~.&X1 O % % % % % % % % % % % ",
"% % % % % % % % % % % X < Y.).(.3X5X2X1XF.,Xp.u.f.f.u.d.u.4.9.+.#...X.x.XXM.. % % % % % % % % % % % ",
"% % % % % % % % % % % % & m. X4X4XuXuX9X2X2X2X,X,XF.g.g.u.a.s.w.' #. . .x.}.r o % % % % % % % % % % ",
"% % % % % % % % % % % % X Y 3X(.3XuXdX8X0X2X5X5X<X-X,X1XF.a.9.i.2.5. .{ X.m.L o % % % % % % % % % % ",
"% % % % % % % % % % % % o 7 XX(.(. X8X9X>X>X>X-Xe.q.-X,Xa.a.a.F.i.S.+.} X.x.k.% % $ % % % % % % % % ",
"% % % % % % % % % % % % % X Y 7X7X3X_.Q.Q.>X:Xr.r.w.q.s.a.p.w.,XD.s.0.+.@.-.v.2 X % % % % % % % % % ",
"% % % % % % % % % % % % % % @ L Y.7X6XI.$.Q.:X_.6X-X-X<Xw.6.9.5.6.w.D.0.0.7.B.r X * % % % % % % % % ",
"% % % % % % % % % % % % % % % o   *.8X<.$.>.).6X9X:X>X-X[ 3.6.' ' 5.D.S.S.N.v.w X % % % % % % % % % ",
"% % % % % % % % % % % % % % % * . I.8XG.%.Q.,.b.,.,.>XQ.` 1.1.] ] 6.8.0.V.N.X.& $ % % % % $ % % % % ",
"% % % % % % % % % % % % % % % % o R.tXI.$.!.,.$.J >.$.$.` K [ ` O.]  .O.8.V.h X & $ % % % % % % % % ",
"% % % % % % % % % % % % % % % % o I I.I.I.!.,.$.<.>.J F F y D F K F J  .N..., % % % % $ % % % % % $ ",
"% % % % % % % % % % % % % % % % O N c.R.^.{.<.<.<.%.J ! F F y y y t h G h = o % % % % % % % % % % % ",
"% % % % % % % % % % % % % % % * o j }.^.^._.<.P.<.( ! J H H m m t @ O @ O % % % % % % % % % % % % % ",
"% % % % % % % % % % % % % % % % . I %X'.{./.P.~.I.( ! ! H H F m 8 O % % % % % % % % % % % % % % % % ",
"% % % % % % % % % % % % % % % % o M.yXOX{.!.^.^.P.=.( Q ! H H m > O % % % % % % % % % % % % % % % % ",
"% % % % % % % % % % % % % % % % O `.fX$X{.^.^.{.P.H.=.~ T T n m = % % % % % % % % % % % % % % % % % ",
"% % % % % % % % % % % % % % % % O &XfX$X'.^.'.{.U.I.=.( Q ! n m % % % % % % % % % % % % % % % % % % ",
"% % % % % % % % % % % % % % % $ 6 aXsX%X].^.{.OX^.U.I.( ( T H z & O % % % % % % % % % % % % % % % % ",
"% % % % % % % % % % % % % % % . g hXsXtXOXR.OX]./.U.U.) / Q R l % O % % % % % % % % % % % % % % % % ",
"% % % % % % % % % % % % % % %   U hXsXfXOXOX$XoXoXU.U.) ) ~ R d & % % % % % % % % % % % % % % % % % ",
"% % % % % % % % % % % % % % *   M.jXgXgX#X#X#XOXOXU.T.l./ ~ R m & % % % % % % % % % % % % % % % % % ",
"% % % % % % % % % % % % % % % . }.hXjXsXiX*X*XOXOXT.K.) G.W R v : O % % % % % % % % % % % % % $ % % ",
"% % % % % % % % % % % % % % % X E.hXgXpXiXeX*X+XoXT.K.h.H.~ R n < $ % % % % % % % % % % % % % % % % ",
"% % % % $ % % % % % % % % % % X f aXsXsXiXiX*X#XoXL.J.G.G.W R Z 6 $ % % % % % % % % % % % % % % % % ",
"% % % % % % % % % % % % % % % % O K.sXiXiXiXiX#X+XL.J.G./ / R Z 9 $ % % % % % % $ % % % % % % % % % ",
"% % % % % % % % % % % % % % % % o s yXeXpXwXeX+XW.J.J.j.j.W S b 1 O % % % % % % % % % % % % % % % % ",
"% % % % % % % % % % $ % % % % * X g aXtXyXqXwX+XW.G.J.S W W b x ; $ % % % % % % % % % % % % % % % % ",
"% % % % % % % % % % % % % % % % % % P qX[.E.W.+Xj.A A x E Z s x & % % % % % % % % % % % % % % % % % ",
"% % % % % % % % % % % % % % % $ % . w [.f s E H.Z p v V E b - d < % % % % % % % % % % % % % % % % % ",
"% % $ % % % % % % % % % % % % % % $ 4 W.s X 9 : V 0 a x x g ; : 1 O % % % % % % % % % % % % % % % % ",
"% % % % % % % % % % % % % % % % % % * M C   & - a & 0 V s i : & 7 % % % % % % % % % % % % % % % % % ",
"% % % % % % % % % % % % % % % % % $ = O c 3 O p a   f V 0 q 6 X = % % % % % % % % % % % % O % % % % ",
"% % % % % % % % % % % % % % % % % % = * = i = v 0 X k.s 0 - p O % % % % % % % % % % % % % % % % % % ",
"% % $ % % % % % % % % % % % % % % % * & O w 0 a & & h.0 a s 3 % % % % % % % % % % % % % % % % % % % ",
"% % % % % % % % % % % % % % % % % O & % = 9 # - $ 3 U 4 0 9 $ % $ $ % % % % % % % % % % % % % % % % ",
"% % % % % % % % % % % % % % $ % % % * = a - 0 & X c d 4 3 X % % % % % % % % % % % % % % % % % % % % ",
"% % % % % % % % % % % % % % % % % % * 5 9 x g o % : p & % % % % % % % % % % % % % % % % % % % % % % ",
"% % % % % % % % % % % % % % % % % @ * > P Z p o * 6 s O % % % % % % % % % % % % % % % % % % % % % % ",
"% % % % % % % % % % $ % % % % % % $ * 8 P M 6 X 4 < 7 % % % % % % % % % % % % % % % % % % % % % % % ",
"% % % % % % % % % % % % % % % % % $ 2 % M L * $ w % % % % % % % % % % % % % % % % % % % % % % % % % ",
"% % % % % % % % % % % % % % % % % % 5 O 9 U . i k o % % % % % % % % % % % % % % % % % % % % % % % % ",
"% % % % % % % % % % % % % % % % $ * 3 $ $ C & k.w X % % % % % % % % % % % % % % % % $ % % % % % % % ",
"% % % % % % % % % % % $ % % % % $ * * % X 9 5 f = % % % % % % % % % % % % % % % % % % % % % % % % % "
};
