/* XPM */
static char *result[] = {
/* columns rows colors chars-per-pixel */
"50 50 239 2 ",
"   c #000100",
".  c #00020C",
"X  c #000C0C",
"o  c #000513",
"O  c #000B15",
"+  c #000B1B",
"@  c #00021E",
"#  c #001416",
"$  c #00141C",
"%  c #00191D",
"&  c #000E23",
"*  c #000F2B",
"=  c #001423",
"-  c #001A24",
";  c #01162B",
":  c #001B2D",
">  c #001E32",
",  c #081E3A",
"<  c #031A37",
"1  c #131839",
"2  c #101C28",
"3  c #00202E",
"4  c #002136",
"5  c #002238",
"6  c #0A2438",
"7  c #15253F",
"8  c #151D46",
"9  c #171554",
"0  c #1A2546",
"q  c #1A235C",
"w  c #0E2440",
"e  c #24284B",
"r  c #292456",
"t  c #372A5D",
"y  c #293352",
"u  c #373C5C",
"i  c #23304F",
"p  c #1E147C",
"a  c #3C2E66",
"s  c #343463",
"d  c #452D6A",
"f  c #45386A",
"g  c #493678",
"h  c #3D4166",
"j  c #45435F",
"k  c #575577",
"l  c #4E4A74",
"z  c #65497D",
"x  c #3E2B8F",
"c  c #311A9E",
"v  c #543588",
"b  c #4C279C",
"n  c #4B358D",
"m  c #713B8A",
"M  c #693A96",
"N  c #6E3887",
"B  c #5627B3",
"V  c #6F33B2",
"C  c #5C4D8A",
"Z  c #6C4187",
"A  c #64598B",
"S  c #735298",
"D  c #6B638D",
"F  c #7C7292",
"G  c #7950AB",
"H  c #100AC9",
"J  c #5211D1",
"K  c #7917D8",
"L  c #5D2EDC",
"P  c #6D2EC9",
"I  c #7F43C8",
"U  c #806C93",
"Y  c #964BAF",
"T  c #9B4DB7",
"R  c #8B57B4",
"E  c #AA52B4",
"W  c #8568A7",
"Q  c #8972A5",
"!  c #8864B8",
"~  c #A277BC",
"^  c #8532DC",
"/  c #943FDF",
"(  c #A83FF5",
")  c #9757D4",
"_  c #BB5BD8",
"`  c #AF53CE",
"'  c #9665C6",
"]  c #AA69C7",
"[  c #AC77D5",
"{  c #B478D4",
"}  c #9346EB",
"|  c #A456E6",
" . c #A848F3",
".. c #B656EB",
"X. c #B86AE4",
"o. c #B773E7",
"O. c #AE60EA",
"+. c #C556CB",
"@. c #D25AD6",
"#. c #E45DDF",
"$. c #C968CA",
"%. c #C866D7",
"&. c #D76BD9",
"*. c #CC71D9",
"=. c #D274D4",
"-. c #D174DD",
";. c #DD74DD",
":. c #D37BDD",
">. c #DC7CDC",
",. c #D973D7",
"<. c #D161CF",
"1. c #E367DF",
"2. c #E17DDE",
"3. c #C25CFD",
"4. c #D65AFC",
"5. c #E75FE2",
"6. c #CB6BE3",
"7. c #CC6AEA",
"8. c #C967E6",
"9. c #D36CE3",
"0. c #D963E8",
"q. c #CD74E5",
"w. c #C975EA",
"e. c #D575E3",
"r. c #D37BE2",
"t. c #D173EB",
"y. c #D27DED",
"u. c #DA78E6",
"i. c #CB6AF4",
"p. c #CD7BF2",
"a. c #C574F4",
"s. c #D47BFC",
"d. c #D37BF6",
"f. c #DD6BF7",
"g. c #E868E3",
"h. c #E275E9",
"j. c #E76AF6",
"k. c #E47DF9",
"l. c #F477F9",
"z. c #F570ED",
"x. c #9784AE",
"c. c #9F87BB",
"v. c #B49AC8",
"b. c #B78ED6",
"n. c #AE8FCC",
"m. c #DC84DD",
"M. c #DC8ADD",
"N. c #D784DC",
"B. c #C896DC",
"V. c #E38DDE",
"C. c #E283DE",
"Z. c #C3A3D5",
"A. c #C1A3CF",
"S. c #C385E4",
"D. c #CB84EC",
"F. c #DD81E3",
"G. c #DD8CE4",
"H. c #D484ED",
"J. c #DC85EB",
"K. c #D88AEB",
"L. c #C693E1",
"P. c #D797EA",
"I. c #CE85F4",
"U. c #D48BF3",
"Y. c #DB8CF2",
"T. c #DA8AFE",
"R. c #D584F5",
"E. c #DC94F1",
"W. c #DD9BF2",
"Q. c #D692F4",
"!. c #E38DE3",
"~. c #E28EEE",
"^. c #E484E6",
"/. c #E491E1",
"(. c #EB95E4",
"). c #EE9AE5",
"_. c #EA96EA",
"`. c #ED9BED",
"'. c #E598ED",
"]. c #F19EE7",
"[. c #E688F7",
"{. c #F386F9",
"}. c #E395F2",
"|. c #E49CF2",
" X c #EB9CF3",
".X c #E395FC",
"XX c #EB94FF",
"oX c #E49DFC",
"OX c #EC98FB",
"+X c #FD95FF",
"@X c #FE9AFF",
"#X c #F19CF9",
"$X c #F080E8",
"%X c #D8A4EA",
"&X c #DDA3F3",
"*X c #DFACF8",
"=X c #DEBBE5",
"-X c #E6A6EF",
";X c #F2A3EB",
":X c #F5ADEB",
">X c #F4A5E6",
",X c #E5B2EE",
"<X c #F6B5ED",
"1X c #F8B4ED",
"2X c #E3A3F3",
"3X c #EBA4F3",
"4X c #E5AAF5",
"5X c #EBACF4",
"6X c #ECA5FB",
"7X c #EDACFC",
"8X c #E5A7FA",
"9X c #F1A4F2",
"0X c #F2ABF3",
"qX c #F3A4FE",
"wX c #FCA4FC",
"eX c #F3ABFC",
"rX c #FDACFF",
"tX c #EDB3F4",
"yX c #EDBBF4",
"uX c #EAB6F8",
"iX c #F2B4F4",
"pX c #F9B5F4",
"aX c #F3BCF5",
"sX c #FBBBF4",
"dX c #F3B3FA",
"fX c #FCB6FE",
"gX c #F4BBFB",
"hX c #FDBBFE",
"jX c #F5C3F5",
"kX c #F8C5F6",
"lX c #F6C9F5",
"zX c #F9CBF7",
"xX c #F6C4F8",
"cX c #FCC4FD",
"vX c #FECBFD",
"bX c #FFD3FF",
"nX c #FFDBFF",
"mX c #F9D0F7",
"MX c #FFE7FF",
/* pixels */
"5 5 5 5 5 5 5 5 5 4 5 5 5 5 5 : 5 6 5 : $ - % - % - - > 6 , 4 : : 5 5 5 5 5 5 4 5 5 5 5 5 5 5 5 5 5 ",
"5 5 5 5 5 5 5 5 5 5 5 4 4 5 : 5 : % = , r d g d d r 1 = - - : 5 5 : 5 5 5 5 4 5 4 4 5 5 4 5 5 5 5 5 ",
"5 5 5 5 5 5 5 5 5 5 4 5 3 3 3 # 2 d Y +.@.1.1.#.g.#.+.E N t : % - 5 : 3 5 5 5 5 5 4 5 4 5 5 5 5 5 5 ",
"5 5 5 5 5 5 5 5 5 5 5 : > - $ g +.j.g.,.$.$.$.$.$.<.<.<.#.#.+.N 7 # : 6 : 5 5 5 5 5 5 5 5 5 5 5 5 5 ",
"5 5 5 5 5 4 5 5 5 5 : : $ < T l.h.*.=.=.:.>.2.2.2.,.=.$.$.&.1.z.5.m ; # 3 : 5 5 5 5 4 4 5 5 5 5 5 5 ",
"5 5 5 5 4 5 5 4 5 : : # 8 @.l.*.=.u.m.m.C.m.C.m.>.m.C.C.2.,.=.=.2.z.` e # 4 : 5 5 5 5 5 4 5 5 5 5 5 ",
"5 5 5 5 5 5 5 5 > 5 O a f.h.6.u.r.:.N.M.!././.V./.V.V.M.m.m.>.m.>.=.$Xg.t $ : : 5 5 5 5 5 5 5 5 5 4 ",
"5 5 5 5 5 5 5 3 , % r j.h.7.t.*.r.F.G.P./.(.(.(.(.(.(.(./.V.M.M.M.^.m.2.2.t # 4 4 5 5 5 5 4 5 5 4 4 ",
"5 5 5 4 5 5 4 > : < 0.{.H.^.q.q.r.K._.;X>X>X).).).].].).).)././.V.M.!.F.>.$.e % 3 4 5 5 5 4 5 5 4 5 ",
"5 5 5 5 5 5 3 5 % a {.OX[.H.w.8.q.G.9X:X1X:X>X;X`.;X;X;X;X;X].)././.m.!.h.,.E > : 4 4 4 5 5 4 5 4 5 ",
"5 5 5 5 5 4 : , # n @XeXXXU.H.8.y.~.9XpXsX<X1X9X`. X_.9X:X:X:X>X)./.M.N.F.-.&.Z # 5 3 4 5 5 4 5 5 5 ",
"5 5 5 5 5 4 : 5 - s OXeXqX.XI.I.H.}.3X<X<X1X9X9X X XY._.:X1X1X:X)././.N.r.u.*.+.0 - 4 4 5 5 5 5 5 4 ",
"5 5 5 5 5 4 4 3 > ; ' hXeXoXT.I.p.p.~.`.iX0X_.}.}.H.Y.|. XiX1X1X;X).!.:.:.u.*.0.Z # 5 : 4 4 4 5 5 5 ",
"5 5 5 5 4 5 4 4 > - > ! fXfXI.D.d.R.Y. X0X0X3X~.H.8.w.Y.}.;X:X0X`./.F.:.*.e.e.&.` 3 : 5 4 4 5 4 5 5 ",
"5 4 4 5 5 4 5 5 5 : = + C fXhXT.I.p.T.3X5X9X X|.Y.H.y.Y.}.9X0X9X_.F.r.:.:.r.y.u.+.0 : 4 3 4 5 5 5 5 ",
"4 4 4 5 5 5 5 4 5 5 : : o r ~ %XgXhX7X|.3X9X X~.t.8.8.t.~._.`.`.'.J.e.*.%.u.h.{.%.e : : 4 5 5 4 5 5 ",
"5 5 5 5 5 5 5 5 5 5 4 : 5 $ + ; u Q 7XhXfXeX0X XY.t.7.t.Y.}.~.h.t.7.8.8.9.h.k.{.Y , : : 4 4 4 4 5 5 ",
"5 5 5 5 5 5 5 5 5 5 5 4 : 5 4 - & . q o.eXfX0X0X X}.}.}.|.}.}.[.8.%.%.%.[.[.@X-.r - > 4 4 5 4 4 5 5 ",
"5 5 5 5 5 5 5 5 > 5 5 5 5 > - : 3 0 q V s.hXhXgXiX0X5XiXiXqXOXt.8.6._ k.+X@X+Xv % : : 5 5 5 5 4 5 5 ",
"5 5 5 5 5 5 5 5 5 5 5 5 5 5 : 6 # g b B s.vXkXsXiXpXsXpXpX6XqXwX_.] Y ] y.y.M ; : 4 5 5 5 5 4 5 5 5 ",
"4 5 5 5 5 5 5 5 5 5 5 5 5 5 5 4 3 > = b 3.gXcXxXsXpXpXsXt.V x e 0 4 4 : , , - : 4 4 5 5 5 4 4 5 5 5 ",
"5 5 5 5 5 5 5 5 5 5 5 5 5 5 5 5 : 5 # n 3. XvXxXkXpXeXfX` B 8 . - - : 3 : : > > 4 5 5 5 5 5 5 5 5 5 ",
"5 5 5 5 5 5 5 5 5 5 5 5 5 5 5 4 3 : O n  .R.hXkXkX0Xd.#X` c q ; 3 - - : > > > 5 5 5 5 5 4 4 5 5 5 5 ",
"5 5 5 5 5 5 5 5 5 5 > 5 5 5 4 5 : : - b P R.hXgXiX6X..i.a.p > ; : : 5 : : : 5 5 5 5 4 4 5 5 5 5 5 5 ",
"5 5 5 4 5 4 5 5 5 5 5 5 5 5 5 4 5 O 9 c B T.7XpX5X5X.X..XXP 2 3 4 - $ 4 , > 5 5 5 5 5 5 4 5 5 5 5 5 ",
"5 4 5 5 4 5 5 5 5 5 5 5 5 5 > 4 & i [ o.| T.&XiXpXkXkXoXXX3.q % $ i s = $ : : > 5 5 5 5 5 4 5 4 5 5 ",
"4 5 5 5 5 4 4 5 5 5 5 5 5 : > + l nXnXvXcXW.W.tXiXaXzXvXw. .v   G cXwXG.S + : : : 5 5 5 5 4 5 5 5 5 ",
"4 4 4 4 5 5 5 4 5 5 5 5 5 ; 6 o W MXyX[.I.I.W.aXyXkXaXvXw. .V   r ) l.wXfXS   - : : 5 5 5 5 4 4 5 5 ",
"5 > > 5 4 5 5 4 5 : > 5 4 ; = + A.nXpXOX3XuX2X5XaXaXtXiX7.p..XG g x eXeXwX9.M e o 6 4 4 5 5 5 5 5 5 ",
"5 5 5 5 5 5 4 5 > > 5 5 : : & j bX X7XcX4X2XW.yXaXaXaX2XE.gXfX+XhXOX} I.hX[.j.}.f O 4 3 5 5 5 5 5 5 ",
"5 5 > 5 4 5 5 4 > ; : 4 + 6   F hXH.cX2X2X|.4XiXtXtX2XY.2Xy.7.`.).) H } 9XcXdX}.cXu ; 4 : 5 5 5 5 5 ",
"5 > 5 4 5 5 5 5 ; w 6 ; - & d P s.xXvX3XaXkXaXyXaX5X5X5XdXE.E.qXrXL J ..|.6XrXP.W.A $ 4 : 4 5 5 5 5 ",
"5 5 5 5 5 > 5 > 6 dXt # # Q +X4.i.aX-XtXiXaX5XiX5XtXaXkXiXK.*X2X2Xw...E.|.eXE.5XL.> : > > 5 5 5 5 5 ",
"5 > > 5 , : 5 = k MXR . A vX}.OXt.-XaXaXaXaX5X4X|.tXjXaXW.p.E.4XW.H.iX2X|.cX|.K.P.y ; 5 : 5 5 5 5 5 ",
", 5 5 5 > ; 5 + x.MX2X{ dX#X6X6XE.5XjXaXzXaX5X5X5XtXaXlX2X2X|.E.4X5X}.|.|.0X5X|.P.7 = > : 5 5 5 5 5 ",
"5 5 > 5 > : > * A.nXxXnXvXdXiX5X5X2XlXkXjXaXaX<XtXaXsXlX4X4XE.U.2X5XE.K.5X7X8XoX~ & > : > 5 5 5 5 5 ",
"5 > > 5 > > - , ,XnXvXnXvXaXiXaX-X3X5XlXlXjXaXtXaXaXkXaX2XtX2X2XW.2XP.E.2XdX8XE.] 1 = > > 5 5 5 5 5 ",
"5 5 5 5 > ; 5 @ Q nXvXMXmXaX<XjXpX5X-X0XjXkXkXaXaXjXzXaXtX5XaX5X2X8XW.W.2X5X7X&XS.W : > > 5 5 5 5 5 ",
"5 5 > , 5 > < : ; =XbXbXnXlXkXtXaXaXiX5XjXjXjXjXaXkXiXW.tXtXyX5XiXaX2X2X*X8X8XQ.S.oXu $ 5 : 5 5 5 5 ",
"5 5 5 6 6 , : 5 o j nXgXmXmXlXaXaXlXaXaXtXlXkXlXaXtX4XW.H.aXyXiXjXuX8X4X2X2XW.Q.&X*Xi ; > : 5 5 5 5 ",
"5 5 5 5 5 5 > : 5 o z fXR.fXlXlXaXjXaXaX5X4X,XaX5Xu.X.7XW.8XlXtXyX8XuX4X8X4XW.s.L.W.k & 5 ; , 5 5 5 ",
"5 5 > 5 5 5 5 5 : > o S l.gXvXlXlXaXjXtX2X%XP.,XtX| K | yXP.2XyX4XH.W.yX&X,XW.o.[ *Xk + 6 > 5 5 5 5 ",
"5 5 , 5 > 5 5 5 5 ; : o ] vXgXvXzXaXtX4XP.&X%X,X,Xo.O.^ o.E.Q.4XaXyX&XU.gX7X4X,Xb.A , > > > 5 5 5 5 ",
"> 5 5 5 5 5 > 5 5 : ; $ 1 3XnXcXvXvX4X&XT.w.yXF ; B.X.^ | vXdXW.D.%XxX8XS.8X4XS w & > > 5 5 5 5 5 5 ",
"5 5 > 5 > 5 5 5 5 5 ; : O z hXL.yXkXB.X.X.yXv.2   D T.J } 8XgX*XX.D.%XlX7XD.nXy . 4 : 5 5 5 5 5 5 5 ",
"5 5 5 5 5 5 5 5 5 5 5 5 = ; g * x.bX' S.yXA.7 + : & S oXP o.vX&X&X[ G ! U b.c.6 : ; > 5 5 5 5 5 5 5 ",
"5 5 > 5 5 5 5 5 5 5 5 5 > ; ; + y A c.v.D 7 + : = : + v.U.[ Z.cXb.R G q . : & ; 5 > 5 5 5 5 5 5 5 5 ",
"5 > 5 5 5 > 5 5 5 5 5 5 , > < w > o ; ; $ - > 4 5 : 3 ; n.b.@ n.gXn.u O 5 ; 3 5 5 5 5 5 5 5 5 5 5 5 ",
"5 , 5 5 5 5 5 5 5 , 5 5 5 > > > : 5 > > 5 > > 5 5 5 > : : w $ 7 b.h = > = > < 5 5 5 5 5 5 5 5 5 5 5 ",
"5 5 > 5 > 5 5 5 5 5 5 5 5 5 > 5 > : > > : > 5 5 5 5 > > 4 : > : > : 5 > 5 > 5 5 > 5 5 5 5 5 5 5 5 5 "
};
