/* XPM */
static char *result[] = {
/* columns rows colors chars-per-pixel */
"50 50 234 2 ",
"   c #010102",
".  c #04030A",
"X  c #130D05",
"o  c #00001C",
"O  c #000013",
"+  c #081518",
"@  c #181710",
"#  c #23180A",
"$  c #2E2414",
"%  c #382C19",
"&  c #3D311D",
"*  c #000422",
"=  c #000A25",
"-  c #000D2A",
";  c #090A20",
":  c #00142E",
">  c #0B172E",
",  c #001631",
"<  c #001C34",
"1  c #001D39",
"2  c #0B1C33",
"3  c #181E39",
"4  c #002137",
"5  c #002339",
"6  c #0C233A",
"7  c #06283D",
"8  c #09293E",
"9  c #0A2033",
"0  c #162438",
"q  c #3E3424",
"w  c #353A3A",
"e  c #282B32",
"r  c #45331C",
"t  c #463924",
"y  c #493D2A",
"u  c #4A3C24",
"i  c #423D32",
"p  c #3E423C",
"a  c #4F422B",
"s  c #54432B",
"d  c #58482F",
"f  c #4C4134",
"g  c #594B34",
"h  c #584A36",
"j  c #5E5039",
"k  c #634F32",
"l  c #63533C",
"z  c #6A573B",
"x  c #775D3C",
"c  c #0F2F44",
"v  c #232D42",
"b  c #292E43",
"n  c #2A3646",
"m  c #313747",
"M  c #354147",
"N  c #3A4450",
"B  c #45474B",
"V  c #464B58",
"C  c #47525C",
"Z  c #5E585A",
"A  c #5C5043",
"S  c #665943",
"D  c #6C5E4B",
"F  c #685844",
"G  c #745F43",
"H  c #665B5A",
"J  c #796449",
"K  c #7C6C52",
"L  c #71655B",
"P  c #766A5B",
"I  c #7D6E5B",
"U  c #756651",
"Y  c #68624A",
"T  c #515864",
"R  c #5F626A",
"E  c #64686B",
"W  c #7D7262",
"Q  c #7F776A",
"!  c #6B7174",
"~  c #777A7B",
"^  c #826E51",
"/  c #856F59",
"(  c #83725B",
")  c #897559",
"_  c #947C5C",
"`  c #917754",
"'  c #836B4D",
"]  c #827565",
"[  c #867A66",
"{  c #8B7B65",
"}  c #8C7C6A",
"|  c #877A6A",
" . c #947D63",
".. c #897A74",
"X. c #7C877B",
"o. c #9A805C",
"O. c #AC895E",
"+. c #8E816E",
"@. c #8D8164",
"#. c #98856B",
"$. c #8D8274",
"%. c #858479",
"&. c #938573",
"*. c #948B74",
"=. c #9B8B73",
"-. c #9B8E7C",
";. c #988777",
":. c #9D927D",
">. c #A38C74",
",. c #A48F7A",
"<. c #AB8E70",
"1. c #A4937C",
"2. c #AD957C",
"3. c #AD997F",
"4. c #AB9173",
"5. c #B39373",
"6. c #B79B7C",
"7. c #C19D7D",
"8. c #797D87",
"9. c #798481",
"0. c #8A8B88",
"q. c #978F86",
"w. c #9B9688",
"e. c #9B9995",
"r. c #A39482",
"t. c #A39984",
"y. c #AD9C83",
"u. c #A69D8B",
"i. c #AA9C8B",
"p. c #AF9780",
"a. c #B39D84",
"s. c #B99E84",
"d. c #B59E89",
"f. c #AA9F92",
"g. c #ADA28C",
"h. c #A6A28A",
"j. c #B6A186",
"k. c #BCA285",
"l. c #B4A38B",
"z. c #BAA58B",
"x. c #B3AA8E",
"c. c #BCA98F",
"v. c #ACA695",
"b. c #B3A692",
"n. c #BAA791",
"m. c #B6AB95",
"M. c #BBAB93",
"N. c #B4AB9A",
"B. c #BCAE9A",
"V. c #B2A798",
"C. c #BCB295",
"Z. c #BDB29C",
"A. c #BDB99C",
"S. c #BAB08E",
"D. c #9DA3AA",
"F. c #AAA9A4",
"G. c #BEB5A2",
"H. c #B6B3A4",
"J. c #B8B9B1",
"K. c #C3AA8E",
"L. c #C4A789",
"P. c #C2AD94",
"I. c #C4B093",
"U. c #C4B39B",
"Y. c #CAB59C",
"T. c #C6B99E",
"R. c #CCB699",
"E. c #D6B697",
"W. c #D1B18E",
"Q. c #C2B6A3",
"!. c #C4BAA4",
"~. c #CCBCA4",
"^. c #C5BDAA",
"/. c #CBBEAA",
"(. c #C9B5A1",
"). c #D2BDA4",
"_. c #D8BEA1",
"`. c #D0BFAA",
"'. c #C0BDB6",
"]. c #CCC2AC",
"[. c #CBC2A8",
"{. c #D2C4AC",
"}. c #DAC5AC",
"|. c #D8C5A8",
" X c #CDC4B2",
".X c #C7C8B8",
"XX c #D3C6B2",
"oX c #D4CBB4",
"OX c #DBCCB4",
"+X c #D5CCBA",
"@X c #DACDB9",
"#X c #D9C6B1",
"$X c #D7D1BB",
"%X c #DCD3BC",
"&X c #DFD4BA",
"*X c #DFD1AB",
"=X c #E5C9A7",
"-X c #E4CEB2",
";X c #E3D1B6",
":X c #E4D4BC",
">X c #E4DABF",
",X c #EEDABD",
"<X c #EAD6B9",
"1X c #F3DCBD",
"2X c #E2D0AF",
"3X c #E9E1BD",
"4X c #CACBC4",
"5X c #DBD4C1",
"6X c #DFD9C2",
"7X c #DDD8C9",
"8X c #D4CFC5",
"9X c #E3D6C1",
"0X c #E3DBC4",
"qX c #EBDAC2",
"wX c #E4DECA",
"eX c #E9DCC7",
"rX c #F2DCC9",
"tX c #EBE3CB",
"yX c #E9E4CC",
"uX c #F8E6C8",
"iX c #ECE5D2",
"pX c #ECE7D5",
"aX c #FCEDD4",
"sX c #F3EDD9",
"dX c #F5F2DD",
"fX c #FFFCDD",
"gX c #FEF1D8",
"hX c #FFF0CC",
"jX c #F4EFE3",
"kX c #FEFBE2",
"lX c #FDFCEB",
"zX c #F7F4E5",
"xX c #FFFFFE",
"cX c #FFFFF3",
/* pixels */
"5 5 5 5 5 5 5 5 5 5 5 5 5 5 5 5 5 5 5 5 5 5 5 5 5 5 5 5 5 5 5 5 5 5 4 5 5 5 5 5 5 5 5 5 5 5 5 5 5 5 ",
"5 5 5 5 5 5 5 5 5 5 5 5 5 5 5 5 5 5 5 5 5 7 5 5 5 5 4 5 5 5 5 5 5 5 5 5 5 5 5 5 5 5 5 5 5 5 5 5 5 5 ",
"5 5 5 5 5 5 5 5 5 5 5 5 5 5 5 5 4 4 4 < , , , , , , : : : : < < < 4 5 5 5 5 5 5 5 5 5 5 5 5 5 5 5 5 ",
"5 5 5 5 5 5 5 5 5 5 5 5 5 5 < : : , < 4 5 5 5 6 5 5 7 7 7 5 4 4 5 : 4 5 4 5 5 4 5 5 5 5 5 5 5 5 5 5 ",
"5 5 5 5 5 5 5 5 5 5 5 5 1 : 1 7 5 4 , : = * ; * * * * * o o : = = < 1 < 5 5 5 5 5 5 5 5 5 5 5 5 5 5 ",
"5 5 5 5 5 5 5 5 5 5 5 < < 7 : o o * : 6 m V C ! q.e.0.0.~ T v v n = : 4 < 5 5 5 5 5 5 5 5 5 5 5 5 5 ",
"5 5 5 5 5 5 5 5 5 5 : 1 : O : ! F.'.7X5X6XuXeXqX9XqXgXgXfXdXkXyXsXF.o : : < 5 5 5 5 5 5 5 5 5 5 5 5 ",
"5 5 5 5 5 5 5 5 5 : 1 * = E rXfXhXuXqXOX].].9XXX/./.^.oX$X0XtXgXyXxXD.. , : 5 5 5 5 5 5 5 5 5 5 5 5 ",
"5 5 5 5 5 5 5 5 : 5 . N rXuX1X}.{.}.qXOX:X0XuXuX5X#XoX&XeX>XtXkXlXxXgX~ o < : < 5 5 5 4 5 5 5 5 5 5 ",
"5 5 5 5 5 5 5 : , o m :X1X_._.;X-XOX:XOX]././.].XXXXXX X].oX0XtXlXxXoX,XC O 5 : 5 5 5 5 5 5 5 5 5 5 ",
"5 5 5 5 5 5 , , o H kX1X-XuXqX:X~.U.U.~./.Q.!.].`./.XX{.[.oX$X&XlXjX{.~.&XV o < : 5 5 5 4 5 5 5 5 7 ",
"5 5 5 5 7 : < o Z uX-X;X<X-X:X;X{.Y.`.~./.!.Z.Q.Q./.XX{.[.[.oXtX0Xm.{.[.P. XC o 4 < 5 5 5 5 4 5 5 5 ",
"5 5 5 5 , 5 * e hX<XuX<X}.-XOX:X~.U.~.`./.Z.M.Z.!.[.$X[.].].oX X[.[.@XyXU.[.4Xe o 5 , 5 5 5 5 5 5 5 ",
"5 5 5 < , = o OXhX<XrX:XqXyX7X:X{.n.M.M.].[.Q.Q.Q.!.[.XX X[.].!.T.!.[.6X3X[.H.e.0 * 4 4 5 5 5 5 4 5 ",
"5 5 < , , * 4XkXrX,XqX<XrX0X@X/.%X/.l.a.l.U.C.U.U./.XX#XoX[.!.[.!.[.$X%XyXoX^.V.V.: : < 4 5 5 5 5 5 ",
"5 5 : 5 . ~ cX-X;X|.`.(.{.].Z.V.Q.^.b.j.@X X~.@X#X`.R.[.|.&X#XZ.[.].7XyXoX&X%Xv.V.E o 9 , 4 5 5 5 5 ",
"5 , 5 o V aX=X;XY.P.n.Y./.Q.V.;. XZ.Q.;XiXlXeXXX:XrXoX~.{.0X0XoX!. X XoX.X&X%X[.h.H.v = 5 < 5 5 5 5 ",
"1 < , * 4XrX_.P.2.a.a.z.M.i.u.M.|.Y.P.m.U.oX].XX+XpXwX{.].@XtXtX$X X].oX X[.^. XG.N.~ * , , 4 5 5 5 ",
", 7 * Z =X_.W.P.s.2.a.z.d.b.l.M.P.M.m.,.Y.Q.b.~.+X8X0XwX6X7X6XpXpX.X X].G.[. X^.XXu.^.C o 7 , 5 5 5 ",
"5 - b W.s.E.s.=XP.s.n.z.M.B.n.U.l.p.d.r.g.Z.x./.5XyX5XwX%X&XfXzXyXsX$XH.G.G.G.A.].A.N..X> : 4 1 5 5 ",
"4 - 3.E.s.K.d.2.p.a.z.U.M.Q.U.c.M.Q.,.,.,.a.uXkXtXtXtXjXsX&XwXdXdXiXdX[.H. X X$X XyXm.[.~ o 5 , 5 5 ",
": m E.s.s.2.2.a.p.p.d.U.I.U.B.M.z.B.M.g.l.g.~. X/.>XtXwXpXoXN.oX$X^.oXoXZ.H.].].[.$XXXt.H.e = 5 < 5 ",
"; V =X6.a.>.>.>.>.2.z.U.M.P.z.z.l.p.U.M.M.m.y.d.d.eXzX.X].N.%XlXyXoX[.iX7X X XG.N.N. Xt.H.! o 5 < 5 ",
"< 2 L.L.2.>.=.>.,.a.M.Y.c.a.a.I.Y.a.d.1.n.@X!.x.[./. X@XN.0.%.yXjX X.X6X5X X X+X6XZ.].:.Q H.0 , 4 < ",
"1 , ] L.,.>.>.=.2.a.P.Y.4.z.).Y.3.3.y.2.j.T.Q.Q./.!.qXsXu...$./.7X'.5XG./. X!./.G.[.g.1.P x.E = 5 < ",
"5 : B L.2.4.,.>.a.Y.Y.p.2.~./.z.3.3.1.1.z.U.~.Q.G./.+X8X@XV.H. X+X X/.^.G.g.m.:.h.C.1.#.x.%.e.N o 7 ",
"1 : 0 ;.K.s.4.P.).).P.>.).-Xa.z.P.4.2.y.j.C.I.T.!.Q.G.Q.9XqX XQ.v.%XG.Z.G.-.-.t.oXN.X.:.h.h.h.X.: 5 ",
"1 < : H P.z.P.).~.P.a.L.}.Y.z.n.n.j.y.l.U.l.}./.{./.Q. XQ.+X+XG.i.V.Z.m.B.m.m.y.1.{ *.3.:.:.x.h.: < ",
"< 5 : m >.K.(.;XR.6.z.s.U.P.P.n.B.P.z.j.U.Y.{.(.|.U.~.U.Q.Q.Q.V.w.Q.Q.n.m.x.m.x.*.{ w.[ *.3.*.3X~ - ",
"1 1 : 2 L ).uX<XL.k.s.R.`.I.a.s.c.l.l.Y.=.`.@X1.M.q.V.w.H.B.V.i.$.g.B.b.C.j.g.l.1.:.h.[ 3.1.*.*X0.* ",
"5 < , : B r.lXE.6.L.P.XXM.k.L.a.z.z.M.c.B.f.Q ;.&.&.i.N.B.M.u.q.-.x.x.y.l.m.:.+.| r.:.@.@.*.h.*XN = ",
"5 < 5 : b ..M.W.L.k.P.U.P.z.s.s.z.s.j.U.d.;.-.P A } c.g.^.i.*...-.M.x.m.y.-.&.+.[ W *.y.*.&.x.%X6 , ",
"5 5 5 , < E { L.s.k.s.s.a.a.K.s.z.P.(.P.r.r.u.;.} ,.B.m.B./.N.$.i.M.C.g.:.N.] I +.S *.3.A.*.[.e.o 7 ",
"5 5 < 4 , w ] d.7.5.6.2.z.a.;.n.U.(.~.U.#X`.U.U.U.U.Q.@XN.Z.^.v.m.M.[.T.i.W u J [ A =.*.A.S.oXC o 7 ",
"5 5 4 5 : 6 L $._.5.7.4.p.| } a.`.`.`.~.(.~.9XqX{.0XU.~.G.t.+X~.y.3.1.1.W h u d W L *.*.x.tXJ.+ 4 < ",
"5 5 5 4 4 - M S Q._.5.E.s.Y.,.a.`.#XrXeX@X5X(.5.=X2XR.K.T.j.{ ] [ Y J j D ] l D P +.K U U.dXn * 5 : ",
"5 5 5 4 4 , , Z  .;X_.K._.(.d.K.rXjXlXpXn.).).I._ _ o.) ^ z k S K { J j a y a l W l g h A.8.O 7 , 5 ",
"5 5 5 5 < 5 - e P ,.zX:X-X-X-XK.n.f.q.{ y._ ' / s K z k J ' J K z l t $ & a q X t @.S =.v.: , 1 4 5 ",
"5 5 5 4 5 4 < : > ..aX:XR._.p.} D A y P >.J ) d ^ #.{ ^ K z G S u h h & d % X   f K x..X2 , : 5 5 5 ",
"4 5 5 5 5 5 < < - V ;.d.p.P...} I L P &.{ )  . .J ' #.K X   a z a z % t #     Y fXC.J.v o < < 5 5 5 ",
"5 5 5 5 5 5 5 < 2 - w z.I.K.L.<.#._ K j D { / J x _ 1.#.u $ # q j $ % #   . X X.X.N 3 = 5 < 5 5 5 5 ",
"5 5 5 5 5 5 5 < < , 0 [ 6.x O.&   f ( ] } 2.4. .K ) ) x s d # $ s r @ . + + c : = : < 5 < 7 5 5 5 5 ",
"5 5 5 5 5 5 5 5 1 1 , 9 p s G r.t.( <.o.) y w U J r % i d J z t j e , 4 , 5 5 8 c 7 1 < 5 5 5 5 5 5 ",
"5 5 5 5 5 5 5 5 5 5 1 , - < 9 M e.) i B > - , - e a k ` t h p : 6 5 5 5 5 5 5 < : , < 5 5 5 5 5 5 5 ",
"5 5 5 5 5 5 5 5 5 5 5 5 5 < < - o = , , 5 5 5 5 < 2 w p 2 : , 5 5 5 5 5 5 5 5 5 4 5 5 5 5 5 5 5 5 5 ",
"5 5 5 5 5 5 5 5 5 5 5 1 1 5 1 7 c 7 5 5 1 < 1 , 4 < , 1 5 5 7 5 5 5 5 5 5 5 5 5 5 5 5 5 5 5 5 5 5 5 ",
"5 5 5 5 5 5 5 5 5 5 5 5 5 5 5 < , < 1 < 5 5 5 5 1 5 5 5 1 1 < 5 1 5 5 5 5 5 4 5 5 5 5 5 5 5 5 5 5 5 ",
"5 5 5 5 5 5 5 5 5 1 5 5 5 5 5 5 1 5 5 5 5 5 5 5 5 5 5 1 5 5 5 5 5 5 5 5 5 5 5 5 5 5 5 5 5 5 5 5 5 5 ",
"5 5 5 5 5 5 5 5 5 5 5 5 5 5 5 5 5 5 5 5 5 5 5 5 5 5 5 5 5 5 5 5 5 5 5 5 5 5 5 5 5 5 5 5 5 5 5 5 5 5 ",
"5 5 5 5 5 5 5 5 5 5 5 5 5 5 5 5 5 5 5 5 5 5 5 5 4 5 5 5 5 5 5 5 5 5 5 5 5 5 5 5 5 5 5 5 5 5 5 5 5 5 "
};
