/* XPM */
static char *result[] = {
/* columns rows colors chars-per-pixel */
"70 70 243 2 ",
"   c #030403",
".  c #090701",
"X  c #130A03",
"o  c #1B170C",
"O  c #0C1019",
"+  c #201304",
"@  c #2A1F15",
"#  c #2E2514",
"$  c #2A2712",
"%  c #372C19",
"&  c #36311B",
"*  c #30270B",
"=  c #3A2C21",
"-  c #3C3322",
";  c #3C382B",
":  c #43351E",
">  c #473925",
",  c #412E27",
"<  c #4C4329",
"1  c #55482D",
"2  c #5E512F",
"3  c #4C4434",
"4  c #544A32",
"5  c #574B37",
"6  c #5D543E",
"7  c #614929",
"8  c #63543B",
"9  c #67583B",
"0  c #735C3D",
"q  c #6E603D",
"w  c #54504C",
"e  c #6D5B45",
"r  c #655B4A",
"t  c #6C5C4B",
"y  c #635644",
"u  c #735C43",
"i  c #695D52",
"p  c #73644D",
"a  c #79644B",
"s  c #77684A",
"d  c #6A6357",
"f  c #756652",
"g  c #7B6B53",
"h  c #7B6C5A",
"j  c #736957",
"k  c #7E715E",
"l  c #7C7153",
"z  c #6D664C",
"x  c #787467",
"c  c #727372",
"v  c #836C4C",
"b  c #826B52",
"n  c #847253",
"m  c #83745C",
"M  c #8A7658",
"N  c #917A58",
"B  c #837462",
"V  c #847863",
"C  c #8B7D6A",
"Z  c #887B69",
"A  c #937D65",
"S  c #817A70",
"D  c #94805D",
"F  c #8D826C",
"G  c #8A836A",
"H  c #938265",
"J  c #92856D",
"K  c #9B8B6D",
"L  c #95886E",
"P  c #898578",
"I  c #948573",
"U  c #9C8570",
"Y  c #958A75",
"T  c #9A8B75",
"R  c #958C7B",
"E  c #9B8D7B",
"W  c #91877B",
"Q  c #9D927C",
"!  c #97937A",
"~  c #A38D75",
"^  c #A88E77",
"/  c #AC9275",
"(  c #A4937C",
")  c #AB947C",
"_  c #AC987E",
"`  c #A29176",
"'  c #B3967B",
"]  c #B29A7C",
"[  c #BC9D7E",
"{  c #A28C6F",
"}  c #B4A27F",
"|  c #8C8B85",
" . c #938C82",
".. c #9D9382",
"X. c #979589",
"o. c #9A9895",
"O. c #8E9083",
"+. c #A39482",
"@. c #A59A83",
"#. c #AD9B83",
"$. c #A49C8A",
"%. c #AA9D8A",
"&. c #A89680",
"*. c #B39D84",
"=. c #BA9E83",
"-. c #B49D88",
";. c #B99F88",
":. c #AB9F91",
">. c #ADA38C",
",. c #A8A289",
"<. c #B4A186",
"1. c #BCA285",
"2. c #B4A38B",
"3. c #BBA68D",
"4. c #BAA98E",
"5. c #B5A98E",
"6. c #ACA493",
"7. c #A4A59D",
"8. c #AAA89A",
"9. c #B4A492",
"0. c #B5AA93",
"q. c #BCAB93",
"w. c #B5AD9B",
"e. c #BBAD9B",
"r. c #BBA691",
"t. c #BDB196",
"y. c #BCB29C",
"u. c #B5B097",
"i. c #9B9EA3",
"p. c #AAAAA4",
"a. c #BDB4A2",
"s. c #BFB9A4",
"d. c #BCBAAB",
"f. c #B4B3AA",
"g. c #BBBAB4",
"h. c #B7B7B5",
"j. c #AFADB0",
"k. c #C09D89",
"l. c #C3AA8C",
"z. c #C4A78A",
"x. c #C2AD94",
"c. c #C5AA96",
"v. c #C3B096",
"b. c #C4B39B",
"n. c #CAB59C",
"m. c #C9B89A",
"M. c #D0B99B",
"N. c #C3B5A3",
"B. c #C4BAA5",
"V. c #CBBCA4",
"C. c #C5BDAA",
"Z. c #CABEAA",
"A. c #C6B7A6",
"S. c #D1BDA4",
"D. c #D0BDAC",
"F. c #C8BEB4",
"G. c #BFC0BA",
"H. c #CBC2AC",
"J. c #CAC0A6",
"K. c #D2C0A7",
"L. c #D3C4AB",
"P. c #DAC6AC",
"I. c #D3C8AF",
"U. c #DCCAAC",
"Y. c #D8C7A7",
"T. c #CCC4B2",
"R. c #CEC8B3",
"E. c #C9C6BB",
"W. c #D2C6B2",
"Q. c #D3CAB3",
"!. c #DACBB4",
"~. c #D4CDBB",
"^. c #DACEBA",
"/. c #DAC7B1",
"(. c #DBD0B5",
"). c #D6D0B9",
"_. c #DBD3BD",
"`. c #DFD8BE",
"'. c #C9D1BC",
"]. c #E2CBAE",
"[. c #E1CEB5",
"{. c #E1CFB9",
"}. c #E4D1B6",
"|. c #E3D3BB",
" X c #E9D3BA",
".X c #E4D7BA",
"XX c #CDCCCD",
"oX c #C7C9C5",
"OX c #D2CDC3",
"+X c #D3CCC9",
"@X c #CDD1C9",
"#X c #DCD5C3",
"$X c #DED9C4",
"%X c #D3D1CC",
"&X c #DDD9CB",
"*X c #D4D2C2",
"=X c #D5D5D2",
"-X c #DDDBD5",
";X c #DEDEDD",
":X c #D7D9D6",
">X c #CDCDD7",
",X c #E3D6C3",
"<X c #E3DBC5",
"1X c #EBDDC5",
"2X c #E5DECC",
"3X c #E9DDCB",
"4X c #E2DCD4",
"5X c #E1DDDC",
"6X c #E8DED2",
"7X c #F0DCC4",
"8X c #DEE1DD",
"9X c #E6E1CB",
"0X c #EBE2CC",
"qX c #E9E1C6",
"wX c #F2E3C6",
"eX c #E3E2D3",
"rX c #EDE6D2",
"tX c #E2E2DE",
"yX c #EDE8D8",
"uX c #F2EBD5",
"iX c #F4EEDB",
"pX c #F4E9D4",
"aX c #F8F1DB",
"sX c #DEDEE1",
"dX c #E1DFE3",
"fX c #DEE1E2",
"gX c #DEE3E9",
"hX c #E1E1E1",
"jX c #E9E5E3",
"kX c #E6E9E5",
"lX c #EAEAE4",
"zX c #E4E5E9",
"xX c #E5E9EA",
"cX c #EBEBEC",
"vX c #EBE7E8",
"bX c #FFFAE6",
"nX c #F9F6E9",
"mX c #EDEDF1",
"MX c #EAE7F2",
"NX c #F3F4F3",
"BX c #FFFFF3",
"VX c #F4F6F9",
"CX c #F1ECF0",
/* pixels */
"hXhXhXhXhXdXhXhXhXhXdXtXhXhXhXdXhXhXdXhXhXtXtXhXhXhXdXtXhXhXhXhXhXhXhXhXhXhXhXhXhXhXhXtXhXhX;XhXhXhXhXhXhXhXdXhXhXhXhXhXhXtXdXhXhXhXhXhXtXdX",
"hXhXhXhXhXhXhX8XhXhXhXhXhXhXfXtXtXfXhXhXhXfXdXhXhXhXhXfXhXfXhXhXhXhXsXtXhXhXtXdXhXfXhXdXfXhXhXhXhXhXhXhXhXhXtXfXhXhXhXdXhXfXhXhXhXhXhXfXhXhX",
"hXhXhXhXhXtXhXfXhXtXhXfXdXhXhXhXhXhXhXhXhXtXhXfXtXdXhXhX5XhXhXhXfXhXhXhXhXhXfXhXdXtXhXhXhXdXhXhXhXfXhXhXhXhXtXhXdXfXhXtXhXhXhXtXhXhXfX5XhXhX",
"hXhXsXtXhXdXhXtXhXdXhXhXtXhXhXhXhXdXtXhXdXhXhXhXhXhXhXhXhXhXhXhXtXdXhXhX5XhXhXhXhXhXhXfXhXtXhXhXhXtXdXhXhXhXsXhXtXhXhXhXtXdXhXfXhXhXhXhXhXhX",
"hXhXfXhXhXhXhXhXhXhX;XhXfXhXhXhXhXhXdXhXtXhXhXhXfXhXhXhXhXhXtXfXhXhXtXhXhXhXhXhXhXhXhXtXhXhXhXhXhXhXhXhXtXsXhXhXhXfXtXdXhXdXhXhXtXdXhXhX5XhX",
"dXhXhXtXtXhXhXhXhXhXhXhXhXhXhX5XhXhXtXfXsXhXhXhXhXhXdXtXtXhXdXhXhXhXsXhXfXhXhXhXhXtXdXhXhXfXhXhXdXtXhXhXhXhXhXdXhXhXhXhXhXhXfXtXhXfXhXhXhXhX",
"tXhXhXdXdXhXhXdXhXhXhXhXhXhXhXhXdXhXhXhXhXhXhXhXhXhXhXfXsXhXhXhXhXhXhXhXtXhXhXhXdXhXtXhXhXhXhXhXhXfXtXhXhXhXhXtXhXdXhXhXfXtXhXhXhXhXhXhXfXhX",
"fXhXhXhXhXhXfXtXhXhXhXhXhXhXfXhXtXhXfXhXhXhXhXfXdXtXhXhXhXhXhXhXsXhXhXhXdXfXhXhXhXhXfXhXhXdXhXhXhXhXhXdXhXhXhXfXhXtXhXhXhXdXhXhXhXhXhXhXhXhX",
"hXhXtXdXhXhXtXdXhXhXhXfXhXhXhXhXhXhXhXtXhXhXhXhXtXhXhXhXhXhXhXhXtXtXtX5XhXhXhXsXhXsXhXhXtX8XtXhXfXtXdXhXhXhXhXhXhXhXhXhXhXhXfXhXhXhXhXhXhXdX",
"hXfXhXhXhXhXhXhXtXdXhXhXtXdXhXhXdXhXhXhXhXhXhXhXhXhXhXhXhXhXhXhXhXhXhX;XtXhXhXkXhXhXsXhX;XjX8XhXhXhXhXhXhXhXhXhXhXhXhXsXhXtXhXdXsXtXhXhXfXtX",
"hX5XhXhXdXtXhXfXfXhXhXdXhXhXtXsX;XhXhXhXhXhXhXhXtX5X8XhXzXjXtXtXfXhXkXkXhXhXsX;XtXgXzXhXhXtX8XhXhXhXhXhXhX;XhXhXsXhXhXhXhXdXtXhXhXhXhXdXhXhX",
"hXhXhXhXhXfXhXhXhXhXhXtXhXhXhXhXhXhXhXhXhXhXfX5XzXhXfXhXfX8X8X8XzXgXsX;XfXfXfXkX8XsXzXsXhXtX8XhX;XhXhX;XhXhXhXhXhXtXhXhXhXhXhXhXhXhXhXtXhXhX",
"hXfXhXhXhXsXhXhXtXhXhXhXhXtXdXhXhXtXdXsXdXhXhXtXgXgXhXhXsX;XgXzXhXfXdXvXjXtX5X5XtXtXhXfX;XzXjX8XhXhXhXtXsXhXhXhXhXhXhXhXtXhXhXhXhXhXhXfXfXtX",
"hXhXhXhXhXhXhXtXdXfXhXhXhXfXhXhXhXhXtXhXhXhXhXzXgXhXhXzXjXjXtX;XtX-X+XOXOXOX&XtX4XtX-XjX:X%X;XhXzXhXhXhXtXhXhXhXhXhX5XfXfXhXtXdXhXhXhXhXhXdX",
"fX5XhXhXhXhXsXtXhXhXhXhXhXhXhXhXhXhXhXhXhXhXhXhXtX5X4X2X6XeX#XR.W.R.T.Z.C.F.~.#X#X$X#XeX_.E.8XhXhXhXzXtXhXhXhX5XhXhXhXhXhXhXhXfXhXhXhX5XhXhX",
"hXhXhXhXhXhXhXhXhXhXhXhXhXfX5XhXhXhXhXhXhXhX;X5X*X#X#X/././.W.H.H.!.^./.Z.L.W.W._.#X<X`.9X$XBXtX:XhXhXhXsXfXhXhXfXhXhXtXdXhXhXhXhXfXhXhXhXhX",
"hXhXdXhXhXhX8XhXhXhXhXhXhXhXtXhXzXsXjXfX8XcXyX/.[.P.[.L.W..XW.I.!.|.1X|.H.V.F.W.Q.`.).9XiXyXBX:Xd.lXgXfXvX;XhX8XfXhXhXhXtXhXhXhXhXhXhXsXhXhX",
"hXhXtXhXhXhXdXhXhXhXsXhXhXhXhXhX;XdXdXzXfXE.W.S.b.S.P.D.L.|.!.L.H.H.Q.I.I.Q.W.R.Q.I.).qXyXiXBX&XA.g.fXhXhXzX;XkXhXhXhXhXsXhXhXhXhXdXhXtXhXhX",
"hXhXhXhXdXtXhXhXhX;XhXhXhXhXhXhXhXzXzX5XjX_.P.U.[.}.|.S.V.V.L.V.V.B.H.J.L.W.!./.I.R.).).9XBXbX~.a.F.oXhXhXzXfX;XhXhXhXhXhXhXhXdXfXtXhXhXhXhX",
"hXhXhXfXhXhXhXhXhXhXhXhXhXhXhXhX:XfX4XF.^.U.P.}..X}.[.S.V.V.L.L.Z.C.Z.Z.V.H.H.I.H.H.)._.<X9XQ.T.t.B.8.oXkXsXfXkXsXhXhXhXhXhXfXtXhXhXhXhXhXhX",
"hXdXhXhXhXhX8XhX5XfXhXhXhXsXhXhXgXjX^.Y.U.L.[.[.|.[.|.L.V.V.S.V.B.a.y.N.V.H.I.I.Q.T.Z./._._.b.H.U.5.u.8.8XxXkXjXhXhXhXhXhXtXhXfXhXfXhXhXhXhX",
"tXhXhXtXhXhXhXhXhXhXhXhXhXtXhXhXfX&XU.].}. X{.}.{.{.{.Z.b.V.V.H.V.y.y.N.C.H.I.W.T.Q.Q.R.Z.H.H.!.qXQ.5.G.7.8XxXfXhXhXhXhXhXdXhXhXhX5XhXhXhXhX",
"fXhXhXfXhXtXhXdXhXhXhXhX;XhXhXvX#X_. X]. X1X X1X3X,X^.L.e.q.b.b.H.V.V.N.A.V.J.L.I.H.H.W.H.B.B.H.R.qXJ.s.X.o.gXfXkXhXhXhXhXhXhXhXhXhXhXfXhXhX",
"hXhXhXdXhXhXhXhXhXhXhXhXhXhXzXvXwX1X{.[.7X|.1X3X#XW.Z.#XV.r.2.2.V.y.y.a.N.H.I.!.I.Q.V.V.J.V.H.(.$XqX.Xy.d.X.G.xXzXhXhXhX5XhXhXhXhXhXhXtXdXhX",
"hXhXhXhXhXhXhXtXsXhXdXzX8XxXsX0X X[.P.P.Y.L.D.L.V.N.w.H.C.e.2.V.T.Z.H.(.!.L.Y.V.L.(._.H.J.H.T._.0X).Q.).y.8.| f.jXhXzXhX;XhXzXhXhXhXhXhXhXhX",
"hXhXhXhXtXdXhXfXhXdXhXdXxXvX4X!.Y.V.b.n.x.b.L.V.A.%.+.W.q.e.L.1XbXpX).!.|.,X!.L.I.(..X<XH.B.Q._._.).Q.<XR.w.X.7.@XzXsX;XlX;XsXhXtXhXsXhXhXhX",
"fXhXdXtXhXhXhXhXhXsX8XkXdXlX!.S.M.n.3.r.3.r.N.9.0.%.e.W.V.V.Z.A.^.#XW.!.^.rX,XQ.H.Q.`.0X9XR.T.J.R.'.R.H.J.H.8.X.o.:XmXkXhXjX;XdXhXhXhXhXhXhX",
"hXhXhXhXhXhXfXhXsXkXjXhX5XW.m.M.c./ ) =.*.2.2.9.9.2.V.v.b.3.#.e.Z.V.b.Q.W.9X9X_.(.'.9X9XuXuXT.R.R.H.J.d.H.H.d.,.X.h.xXgXhXhXhXhXsXhXhXhXtXsX",
"hXdXhXhXtXsXhXtXzX;XjXvXs.( n.z.c. Xl.-.c.3.q.q.e.9.q.r.4.b.#.9.B.0.q.L.^.#X#X<X$X0X`.rXiX9X`.R.C.C.s.C.J.y.H.8.o.p.@XcX8XzX8XhXfXhXhXtXhXtX",
"hXtXhXhXhXhXhXhXgXjXhX+X2.] ;.z.c.l.;.3.2.r.r.b.e.b.b.2.#.#.( #.0.b.L.}.2XrX2XrX0X).9XbXiXaXaXrXR.a.H.C.s.J.J.H.,.f.h.hXhXkX;XtXhXhXhXdXhXhX",
"hXhXdXhXhXhXhXhXkXsXjXe.=.=.-.2.=.&.*.;.=.n.v.b.b.x.r.c.V.-.+.#.` Y.aXaX3X<X9XuXuXuX`.(.iXrX$XrX_.a.C.E.Q.`.H.$XJ.$.o.E.NX;XzXzXtXhXhXfXhXdX",
"hXhXtXfXhXhXdXhX;XMXOX3.] ' *.( #.*.&.*.-.b.x.b.x.e.q.q.3.v.2.r.0.r.m.m.V.<X9X.XqX`.s.G.).).R.T.).T.w.H.y.G.G.T.J.,.O.h.8XhXzXtXdXhXhXtXhXhX",
"hXhXhXhXhXhXhXhXfXMXOXz.k.-.U ^ ^ ~ ) #.<.n.x.c.x.r.3.2.>.v.r.3.q.q.2.0.e.2XnX,XT.d.w.9XbX9X~.H.#X2X_.R.H.B.a.y.B.6.O.7.@XcX8XkXhXhXtXhXhXhX",
"hXhXhXhXhXhXhXjXfXxXE.&.=.) _ { / U ) 2.3.V.v.2.#.3.b.m.*.2._ 2.B.!.2.y.Z.H.~.W.F.:.X.6.iXrX~.R.2X$XR.R.~.T.).s.N.y.j | p.hXkXhXhXhXhXhXhXhX",
"hXhXhXhXhX8XhXzX:XcX+XZ ;./ U { ~ ~ _ -.x.c.2.<.m.n.n.*.*.<.>.<.b.H.b.y.A.T.^.rXT.W R  .OX&XQ.#Xs.R.R.C.C.Q.H.R.9.+.V G 7.8XxXkXhXhXhXhXhXhX",
"hXhXhXhXhXhXhXhXxXfXMX .~ ] T ^ ( ^ =.m.n.3.*.3.S.n.3.*._ #.` <.0.m.V.H.A.A.<X#XQ.e.6.6.~.~.s.E.T.C.C.w.a.,.%.e.-.+.E R x G.;XgXzXhXhXhXhXdX",
"hXhXhXhXhXhXhXhXxX=XNXh.B -.) ) ) 4.c.M.n.*.*.K.S.c.3.<._ _ _ 3.b.m.b.b.b.y.H.H.!.#XZ.T.C.C.#XT.N.a.>.@.,.+.A.y.! ! ! ,.! O.8XfXhXhXhXhXhXhX",
"hXhXhXhXhXhXhXhXgXkXzXdXS &.c._ 3.S.K.m.l.*.c. Xx.#.v.r._ *.3.#.5.t.V.B.Q.B.B.C.W.,X,XC.N.$.C.a.0.C.6.@.@.%.y.,.G Q ,.! ,.W 7.xXzXkXhXhXhXhX",
"hXhX;XhXhXhXhXhXhXhX:XVXo.B x.#.S.v.m.c.=.2.S.v.x.m.3.r.4.5._ K.b.v.[.n.Z.Z.N.Z.A.A.W.F.N.6.a.a.e.y.q.5.V.#.L H F @.G ( H u.G.G.hXhXhXhXhX8X",
"hXhXdXhXhXhXsXhXdXvXtXxX>Xf ) b.Y.[.m.=.l.l.v.b.v.3.r.m.r.t.4.q.q.L.V.n.L.q.C.N.N.F.e.N.:.$.e.T.q.t.5.0.>.>.( L +.T G } K ! G.%XkXjXhXhXhXhX",
"hXhXtXhXhXhXdXtXhXzXjX;XcXc F ,X}.].1.l.<.m.K.c.l.1.-.2.3.2.t.2.( 3Xy.@.q...9.$.0.0.e.w.$.R @.b.} v.9.>.#.#.+.E >.J P %.J } u.E.zXjXtXhXhXhX",
"hXhXdXhXhXhXhXfXhX;XlX;XmXg.i !.wX' l.[ m.S.v.3.l.3.3.x.3.l.b.4.A.T B ..I I 9.6.N.6.e.....Q q.0.>.>.0.5.@.I C E +.J J C Y <.u.@XzXzXhXhXhXhX",
"hXhXhXhXhX5XhXhXzX;XjXzXgX;Xd E n.1.l.z.c.b.m.x.3.=.2.2.-.r.m.r.+...Y k p J <.,.a.Z.....Y Q 0.5.>.,.@.E F I V C I #.E Y ..@.8XtXhXhXhXhXhXhX",
"tXhXhXfXfXhXhXhXtXhX;XcXfXzXj.d ~ [ [ [ =.3.<.*.3.3.l.r.r.c.q.4...%.$.C Z Q 5.t.6.w.w.$.Y @.4.t.t.2.+.,.m V Y t F $.,.#.G s.eXhXkXhXhXhXhXhX",
"hXhXhXhXhXhXhXhX;XhXhXzXzXxX-Xc A -./ [ =.1.2.2.-.-.r.x.A.S.n.q.V.9.9.>.9.0.t.J.N.Z.W.6.%.0.q.q.q.( ,.F 6 l Z r L ! ` u.,.u.8XgXhXhXhXhXtXdX",
"hXhXhXsXhXhXhXhXhXhXhXhXhXhXvXo.r ;.' / [ ^ =.*.A ~ c.n.n.V.N.D.!.!.|.V.V.!.m.Y.Z.Q 9.Q.e.e.2.x.B.>.k 3 1 r C r L G _ B.,.@XkX8XhXhXhXhXfXhX",
"hXdXhXtXhXdXhXhXhXfX5XzXhXkXcXXXd C n.' z.[ ' ^ ^ U r.L.P.|.W.Z.A.S.P.P.Y.(.m.v.V.m.9.b.2.T J m k p g r 4 5 m x L m ! t.eXhXfXxXhXhXtXdXhXhX",
"fXtXhXhXhXtXfXhXhXhXdXsXkXzX;XcXo.w r.M.' M.c.S.N.) c./.!.3X6X,X!.,Xz.' M.m.l.4.2.( C t j V f a p y f p 8 l m k z 6 G G.eXfXxXtX5XfXhXhXhXhX",
"hXhXhXhXhXhXhXtXdXhXhXdX8XhXzXkX=XP x Z./.c.P.M.c.c.n.1XyXiX7X3.2.n.x.c.s n N a b a e t s g M s 1 1 > > 3 < p y < 8 x h.cXhXkXkXtXhXhXfXhXhX",
"hXhXhX5XhXhXfXhXhXhXhXhX5XhXjXzXzX-X..F wX[././..XM.;.-.+. .Z ..' v n 0 7 N a u a u l 0 s 2 8 < & > 3 3 $ o & l z j R -XhXxXfXhXdXhXhXhXtXdX",
"hXhXfXhXhXhXhXfXhXhXhXhX8XhXhXzXzXzXOXP _.^.b.Z.x.T I h y y t ~ n n n 8 A M A b n l e e e 2 1 2 , < > + .   ; s x OXoXcXzXxX;XtXhXhXhXhXhXhX",
"hXhXhXhXhXhXhXhX;XhXhXhXhXhXhXtXcXhXmXg.P >.C =.^ A B j x j H C b B C n f m G H , X @ y 5 < w = % & . . . ; G.! d.nX8XkXhX;XzX;XfXtXhXdXhXhX",
"hXhXsXhXhXhXhX5X;XhXhXhXhXhXhXhXkXhXMX:Xd R 2.1.9.^ ^ H M u r i B B g a u M H H 4 $ o # > 5 - = & X     O @XlX*XCXhXhXzXdX;XhXtXhXhXfXhXhXhX",
"hXhXtXhXhXhXhXhXhXhXhXhXhXhXhX;XtXkXgXmXj.S #.N N ~ > , t h z d M H N b u N A H 9 : , + & 3 # $     O w oXcXkXmXhXzXzXhXhXhX;XhXhXdXtXhXhXhX",
"fXhXhXhXhXtXfXhXhXhXhXhXhXhXhXhXtX8XzXfXCX4XR z 7 g # o ; B C M V #.E b n 9 1 > , 8 2 * * - 3 O.c c i.:XVXmXmXfXkXkX;XhX;XhXzXtXtXhXhXdXhX8X",
"tXdXhXhXhXdXhXhXhXhX;XhXhXhXhXhXhXfX8XcXfXhXzXXX$.f.F.A.A M m +.j.5X4XE.r # : 5 8 > y t W | :XVXmXVXVXgXfXyX8XxXhXsXhXhXfXhX;XkXhXhXhXhXhXhX",
"hXdXhXhXhXfXhXhXhXhXdXtXhXhXhXdXhXfXhXhXhXzXkXhXcXNX%XXXj.p.zXcXmXmXmXmX%Xj r 3 x h.h.cXNXNXxX;XhXfXhXjXzXhXhXhXdXhXhXhXhXhXhXhXhXhXhXdXtXhX",
"hXtXhXfXhX5XhXhXhXhXhXhXhXhXfXtXhXhXhXhXhXhXhXkXzX=XcXcXcXVXhXhX:XkXhXfXcXtXeXE.%XNXxXcXfX8XjXcXcXcXlXzXzXhX;XsXhXhXfXhXdXtXhXhXhXfXhXhXhXfX",
"hXhXhXhXhXhXhXhXhXtXhXfXtXdXhXhXhXhXhXhXjXhXhXhXjXcXzXzXtX:XhXhXzXhXjXxXkXfXzXmXtXjXhXhXcXmXzX;XzXtXdXhXtXtXhXkXtXhXdXtXhXtXsXhXdXtXhXhXhXdX",
"8XhXhXhXhXhXhXhXdXhXhXhXhXhXhXhXhXhX5XfXhXfXhXjXhX;X;XhXcXcXkXjXzXhXhX8XsXmXzXzXcXzXcXzXhXhXhXjXhXtXhXhXhXhXhXhXfXhXhXhXhXhXhXhXhXhXhXhXhXtX",
"hXhXhXhXhXhXtXhXhXhXhXhXfXhXhXtXhXdXtXhXhXdXhXhXhXzXtXhXhX;X;XdXfXsXhXhXhX8XkXzXhXsXdXhXhXhX5X;XhXhXhXhXhXhX5XhXdXtXfXhXsXhXhXhXhXhXhXhXtXhX",
"hXdXhXhXhXhXhXsXhXhXhXsXhXhXhXdXhXhXhXhXhXhXhXtXtXsX8XhXhXhXhXhXhXhXhXhXhXtXkXfXkXhXsXzX;XfXhXzX;XsX;XhXfXhXhXhXhXhXhXhXhXhXhXhXhXhXtXsXfXhX",
"fXhXtXdXsXhXhXhXhXhXhXtXhXdXhXhXhXhXdXhXtXfXdXhXhXhXhXhXhXhXhXhXhXfXhXhXjX;X8X8XtXsX8XhXhXzXhXhXzXhXkXdXhXhXhXsXhXhXhXhXhXhXhXhXhXhXhXtXhXdX",
"tXhXhXhXhXhXhXtXhXsXhXhXhXtXfXhXfXhXtXhXhXhXhXhXhXhXhXhXhXhXhXhXtX;XhXsXsXzXhXhXhXtXzX5XhXhXsXhX;XhXhX;XhXhXhXtXhXhXhXhXhXhXfX5XhXsXhXhXhXhX",
"hXhXhXhXhXdXtXhXtXdXhXhXhXhXhXhXhXhXhXdXhXhXhXsXhXhXhXhX5XhXhXfXhXhXhXhXsXhXhXhXhXhXhXhXtXsXhXhXhXhXhXfXhXtXdXhXtXhXhXhXhX8XfXhXhXhXhXhXhXfX",
"hXdXhXtXfXhXhXhXhXhXhXhXhX8XhXdXfXtXhXhXhXfXhXtXhXhXhXhXhXhXhXhXhXsXhXhXhXhXhXhXtXsXhXhXhXhXhXhXdXhXtXdXhXhXhXhXhXhXhXdXhXhXhXhXtXdXhXhXdXtX",
"hXfXhXdXhXhXhXhXhXfXhXhXhXhXhXtXhXdXtXfXdXtXhXhXhXdXtXhXhXhXhXhXhXtXhXdXtXhXsXhXhXfXhXhXhXhXfXhXtXhXhXhXdXhXhXhXsXhXhXhXhXhXhXhXhXhXdXhXhXhX",
"hXtXhXhXhXfXtXdXhXhXhXhXdXhXhXhXtXhXhXhXhXhXhXhXhXhXhXfXdXhXhXhXhXhXhXtXhXhXhXhXhXtXdXhXhXdXtXhXfXhXhXhXhXhXhX8XhXhXhXtXhXhXdXtXhXhXtXfXhXhX",
"hXhXhXhXhXdXtXhXhX5XfXhXhXhXhXfXhXhXhXhXhXhXhXhXhXhXhXhXtXhXhXhXtXhXhXhXhXhXfXtXhXhXfXhXhXhXhXhXhXdXtXfXhXtXhXdXhXhXfXdXdXhXfXtXhXdXfXhXhXhX",
"hXhX5XhXhXhXhXfXhXhXhXhXhXhXhXhXhXhXhXsXtXhXhXsXhXhXhXsXfXhXtXhXdXhXfXhXhXhXhXdX5XhXhXhXhXhXhXhXhXhXhXhXhXhXhXhXhXhXhXhXtXhXhXhXhXhXtXhXtXdX"
};
