/* XPM */
static char *result[] = {
/* columns rows colors chars-per-pixel */
"50 50 229 2 ",
"   c black",
".  c #00010C",
"X  c #050A02",
"o  c #000114",
"O  c #00021C",
"+  c #020B1B",
"@  c #06151E",
"#  c #121A1A",
"$  c #180800",
"%  c #221F12",
"&  c #201B0F",
"*  c #282519",
"=  c #352C1C",
"-  c #352C1B",
";  c #000522",
":  c #000A23",
">  c #000D29",
",  c #00142D",
"<  c #00182F",
"1  c #0B1E2B",
"2  c #001631",
"3  c #001C34",
"4  c #001D38",
"5  c #081C35",
"6  c #151E32",
"7  c #171A23",
"8  c #1A2629",
"9  c #002037",
"0  c #002339",
"q  c #082338",
"w  c #14253C",
"e  c #172636",
"r  c #0D202F",
"t  c #272A27",
"y  c #352E21",
"u  c #3B3528",
"i  c #26353D",
"p  c #3D3C34",
"a  c #2E302F",
"s  c #433A2D",
"d  c #463A28",
"f  c #443D32",
"g  c #493E31",
"h  c #413F3A",
"j  c #48320F",
"k  c #4B422E",
"l  c #574223",
"z  c #4D4434",
"x  c #4A453C",
"c  c #474439",
"v  c #524C3D",
"b  c #554837",
"n  c #5C523D",
"m  c #665236",
"M  c #7C6236",
"N  c #132C42",
"B  c #162D42",
"V  c #273646",
"C  c #363E4B",
"Z  c #3A4246",
"A  c #394859",
"S  c #574F44",
"D  c #5D5443",
"F  c #56514B",
"G  c #5B564B",
"H  c #565247",
"J  c #5D5A54",
"K  c #5E5D58",
"L  c #54595B",
"P  c #485252",
"I  c #62594B",
"U  c #665C48",
"Y  c #625C54",
"T  c #615C58",
"R  c #756448",
"E  c #6A6356",
"W  c #64625B",
"Q  c #6B665C",
"!  c #6C685D",
"~  c #766C5C",
"^  c #746855",
"/  c #565B65",
"(  c #4B5862",
")  c #5F676D",
"_  c #6D6D6A",
"`  c #686664",
"'  c #726B63",
"]  c #716F6A",
"[  c #75736C",
"{  c #7B746A",
"}  c #7C7767",
"|  c #636B73",
" . c #787671",
".. c #7B7A74",
"X. c #767777",
"o. c #6C7476",
"O. c #857559",
"+. c #837A65",
"@. c #827C74",
"#. c #827F7A",
"$. c #958469",
"%. c #84837C",
"&. c #8A857C",
"*. c #8A8679",
"=. c #9A8E7A",
"-. c #968B71",
";. c #A68C6B",
":. c #AE965A",
">. c #7B8484",
",. c #858582",
"<. c #8B8A84",
"1. c #8D8D8B",
"2. c #888784",
"3. c #938E83",
"4. c #918F8B",
"5. c #959185",
"6. c #93938C",
"7. c #9B968A",
"8. c #8B9292",
"9. c #939594",
"0. c #9B9A94",
"q. c #9C9D9B",
"w. c #989691",
"e. c #88918C",
"r. c #A29B8D",
"t. c #A49785",
"y. c #A29E92",
"u. c #9EA09B",
"i. c #AAA18D",
"p. c #B7AA89",
"a. c #ADA493",
"s. c #A3A29C",
"d. c #ABA69B",
"f. c #ACA99C",
"g. c #A5A292",
"h. c #B3A99B",
"j. c #A4A5A3",
"k. c #ABABA5",
"l. c #ACACAB",
"z. c #A7A8A5",
"x. c #B4AFA4",
"c. c #B1AEA8",
"v. c #BBAEA1",
"b. c #AFB1AA",
"n. c #B3B1A6",
"m. c #B3B3AC",
"M. c #BBB6AA",
"N. c #BCB7A7",
"B. c #B0AFB0",
"V. c #B4B5B1",
"C. c #BBBBB4",
"Z. c #BCBDBB",
"A. c #B7B8B5",
"S. c #ADAFB0",
"D. c #C0AF94",
"F. c #C1B5A3",
"G. c #C5BAA4",
"H. c #C6BBAC",
"J. c #CBBDAA",
"K. c #C4B6A7",
"L. c #C3BDB4",
"P. c #C1BFBA",
"I. c #CABFB3",
"U. c #D0BEAE",
"Y. c #BEC1BD",
"T. c #DACAAC",
"R. c #CAC1B3",
"E. c #C3C3BD",
"W. c #CAC5BD",
"Q. c #CBC9BE",
"!. c #D2CABB",
"~. c #D7CAB6",
"^. c #DED1AE",
"/. c #EED8B9",
"(. c #BDBEC2",
"). c #BEC3C6",
"_. c #C3C5C3",
"`. c #C7C8C4",
"'. c #CBCAC4",
"]. c #C4C6C9",
"[. c #C7CACB",
"{. c #CBCCCC",
"}. c #D1CECA",
"|. c #D2D2CD",
" X c #DBD5C9",
".X c #CBCDD1",
"XX c #CFD1D2",
"oX c #CFD4D8",
"OX c #D4D5D5",
"+X c #D8D7D3",
"@X c #DBD9D5",
"#X c #D5D6D9",
"$X c #D7DADA",
"%X c #DBDCDB",
"&X c #D6D8D5",
"*X c #CFD2CF",
"=X c #E5DBCC",
"-X c #E1D6C5",
";X c #E1DFDC",
":X c #E4DDD6",
">X c #DFE0DD",
",X c #F5E6C9",
"<X c #EDE4D4",
"1X c #E2E2DE",
"2X c #E9E2D8",
"3X c #F3E8D8",
"4X c #FFF2DC",
"5X c #DDDFE2",
"6X c #DFE1E1",
"7X c #E3E4E3",
"8X c #E6E8E6",
"9X c #EAE9E6",
"0X c #EBECEB",
"qX c #E5E7E8",
"wX c #F3EFEB",
"eX c #F7ECE2",
"rX c #EEF0EF",
"tX c #FCF2E5",
"yX c #F2F1ED",
"uX c #FAF5ED",
"iX c #FDFAED",
"pX c #EEF1F3",
"aX c #F3F4F3",
"sX c #FAF4F2",
"dX c #F7F8F7",
"fX c #FDFBF4",
"gX c #FDFEFD",
"hX c #F5F8F9",
"jX c #ECEDF0",
/* pixels */
"0 0 0 0 0 0 0 0 0 0 0 0 0 0 0 0 0 0 0 0 0 0 0 0 0 0 0 0 0 0 0 0 0 0 0 0 0 0 0 0 9 0 0 0 0 0 0 0 0 0 ",
"0 0 0 0 0 0 0 0 0 0 0 0 0 0 0 0 0 0 3 0 0 0 3 , , < 0 0 0 0 0 0 0 0 0 0 0 0 0 0 0 0 0 0 0 0 0 0 0 0 ",
"0 0 0 0 0 0 0 0 0 0 0 0 0 0 3 , < , < < 3 , 3 0 0 0 < < 0 9 9 3 3 < < 3 < 3 0 0 0 0 0 0 0 0 0 0 0 0 ",
"0 0 0 0 0 0 0 0 0 0 0 0 3 3 3 0 0 0 3 3 0 0 > O O ; 3 9 , 3 < < < 9 0 0 0 < 9 0 0 0 9 0 0 0 0 0 0 0 ",
"0 0 0 0 0 0 0 0 0 0 0 0 0 0 , O O O : O O o e ( o.Z O : 0 < q 0 , : ; > O 5 0 0 0 0 0 0 0 0 0 0 0 0 ",
"0 0 0 0 0 0 0 0 0 0 0 0 3 O w ) 8.k._.[.L 1.fXgXgXgXQ.6 . : o + 0 V e./ 2.8.> 0 < 9 0 0 0 0 0 0 0 0 ",
"0 0 0 0 0 0 0 0 0 3 3 2 : ,.|.gXgXgXgXgXfXgXgXgXgXgXgX9XL | .X).@XgX<XR.gX|.5 , 9 9 0 0 0 0 0 0 0 0 ",
"0 0 0 0 0 0 0 0 0 3 3 > ` ^./.iXgXuXuXeXgXgXgXgXgXgXgXgXgX2XQ.fXgXgXF.!.3X!.A : 0 < 0 0 0 0 0 0 0 0 ",
"0 0 0 0 0 0 0 0 0 3 3 , r.p.T.,X,XgXgXgXgXgXgXgXgXgXgXgXsXsXQ.m t.gX-XR.T.G.A : 0 < 0 0 0 0 0 0 0 0 ",
"0 0 0 0 0 0 0 0 3 0 2 3 i.D.:.;.2XgXgXgXgXgXgXgXgXgXgXgXgXsXgX:Xj l R.iXG.v.A : 0 3 0 0 0 0 0 0 0 0 ",
"0 0 0 0 0 0 0 0 3 3 O V p.M ;.wXgXgXgXgXgXgXgX0XdXgXgXdXwXwX9XdXdXb $ g.$.p.A > q 3 0 0 0 0 0 0 0 0 ",
"0 0 0 0 0 0 0 0 > 3 2 t R v.gXgXgXgXgXgXgXgXgXgXgXgXgXhX0X9XaX7X0XgX5.  # [ < 3 0 0 0 0 0 0 0 0 0 0 ",
"0 0 0 0 0 0 0 , 4 : . P 2XgXgXgXgXgXgXgXgXdXgXr.|.gXdXgX0X0X7X8XrXrXgX'.7   , 9 < 0 0 0 0 0 0 0 0 0 ",
"0 0 0 0 0 0 , 3 o : q.gXgXgXgXgXgXgXgXgXgXaXgX{ P.gX0XgX0XwX&X5X7XpX0XgXfX` . ; 0 < 3 3 0 0 0 0 0 0 ",
"0 0 0 0 9 > < . L aXgXgXfXgXgXgXgXgXgXgXgXgXdXgXgXdX0X7X8X5X8X@XjX$X0X1XhXgXA.e o 2 3 3 3 3 0 0 0 0 ",
"0 0 0 0 < 3 . X.gXgXfXgXgXgXgXgXhXdXpXhXyXaXdX0X8X0X7X$X8XXX0X@X%X0X`.yX7X:XgX3X .o ; 2 0 3 0 0 0 0 ",
"0 0 3 3 : o 6.gXiXiXgXsXgXgXgXgXaXdX7XaX7XaX7XpX0X$XwXj.+X%XOXpX_.1X@XC.8X1X}.:X4XF.F : ; , 5 0 0 0 ",
"0 3 3 3 < X.fXuXfXfXwXgXdXdXdXdXaXhX6XgX%XpX@X7XqXOX8Xc.[.8X[.0X%XZ.0X*XA.8X+X'.J.,X/.$.C , , 3 0 0 ",
"0 3 3 : k.gX3XiXiX<XfXeXgX0XgX0XgXaXjXdX.X0XOX6X8X.X6X5X.X9XOX.XrXE.`.aXE.M.7X'.I.K.J.G.T.,.O , 0 0 ",
"3 3 > 1 &X<X<XiX=XgX3XsXwX9XgX5XgX%XaXpX#XaX$X6X8X{.;X6X].%X5XZ.1X%Xm.&XrXE.k.7X'.K.I.G.h.R.| : 0 < ",
", 0 O / 2X=XiX XdX3X2XgX XgX%X6XhX.XgX%X$XaX.XqX7X{.&X;X_._.7X(.Z.7XZ.m.>X0Xm.y.OX'.v.t.R.d.n.V > 0 ",
"< 0 : Z yXtX~.fX4X~.gX=X;XgXP.hX7X{.gX[.OX0X].5X7X[.[.%X).B.&X.Xm.|.&Xk.A.7X8XM.3.L.`.=.g.f.M.| > 0 ",
", 0 ; ).fXG.sXuXD.gXfXW.gX9X`.gXP.XXhXA.OX8XP.OX@X].(.XX].j._.@Xl.V.>X).s.E.1X>Xd.3.c.{.n.} r.M.r 3 ",
"0 : A C.a.uXgXD.XXgX!.+XgXP.#XgXm.qX0Xj.[.&Xm.].|.(.A._..Xl.l.OXA.0.}.$Xk.7.Y.>XOX7.} =.'.f.E K 0 < ",
"3 3 r 6.gXiXK.L.gX2XM.gXyXk.jX8Xz.aX1Xj..X|.l.].'.C.S.C.[.l.9.[.`.6.k.>X`.6.w.`.|.|.+.n s.f.R.L ; 0 ",
"3 , w yXtXJ.h.wXgXK.P.gX'.B.gX`.b.dX'.q.[.*Xz.).`.A.j.V._.V.9.V.{.z.e._.$XV.%.w.Y.>Xf.*.I ..m.M.V , ",
"0 : C dXU.t.wXgX Xy.0XfXd.].gXd.A.aXN.0.].`.9.z.E.V.q.k.Y.Z.1.q._.).<.w._.*Xq.! u.Y.E.n.~ k K k.V , ",
"0 , q 9.} |.dXwXg.V.gX!.4.5X1X6.].0Xd.4.]._.9.q.V.j.9.s.m.Z.9.4.V.[.q...k.{.Y.[ E 6.n.'.f.^ * e 2 4 ",
"0 < 4 + *.gXyXW.&.6XsXh.w.8XW.<..X7X0.<._.A.5.q.A.k.9.9.l.C.j.>.u.Y.Z._ %.V.Y.k.n z u.b.L.i.G > 3 3 ",
"3 3 , 6 yXiX+X*.w.gX|.&.c.0Xs.,.oXXX6.1.E.A.4.<.m.j.9.8.k.m.S. .2.k.Y.<.W e.Y.`.+.d W =.0.M.7.5 3 0 ",
"3 3 , , :XtXr.@.;X;Xc.{ ].;X3.,.&XE.3.1.`.m.<.1.m.u.9.2.u.u.m.X.[ w.A.b.W ' u.V.f.} - I &.y.j., 3 3 ",
"0 3 0 > %.R.U y.9X'.7.#.+X'.%.<.|.V.#.,.Z.s.%.,.l.0.1. .1.6.z.<.! e.j.V. .H } e.Y.e.n - I #.w 3 0 3 ",
"0 3 0 , 5 8 S @X XW.{ &.;Xc.{ 9.+Xc.@.#.Z.q...X.s.6.4._ ..9.q.0.K ] 6.m.s.x y %.l.M.+.z X Z B 9 0 0 ",
"0 0 0 3 , O o.4XI.h.} 0.+Xy.Q 0.XXy.[ X.A.w..._ q.9.<.]  .6.6.u.W T %.u.d.v u T <.d.a.n t > < 9 0 0 ",
"0 0 0 , q O >.4Xa.+.~ P.P.&.Q l.'.4.` [ m.y..._ q.6.&. .` <.%.0. .F ` [ 2.,.g s Q 5.k.a.i , 3 9 0 0 ",
"0 0 0 3 3 > V 7.3.b ' Z.M.@.S y.`.4.W _ k.3.[ W 4.6... .J %.,.6.<.f z ' 2.y.T * d @.n.s.2 < 9 3 0 0 ",
"0 0 0 0 0 0 > 1 V + 6.-X3.' Y x.x.@.G _ c.3.] T 2.0.....J  . .' *.H p Y  .5.&.S * h  .6 2 0 4 0 0 0 ",
"0 0 0 0 0 0 0 > 5 ; ) ^.+.D Q C.t.@.S W y.~ Q H X.4.Q [ H J ] ` ,.G % d Y +.t.{ 8 , > 3 0 0 0 0 0 0 ",
"0 0 0 0 0 0 9 < 3 , V -.I = Y v.$.I f K y.U I x ' *.Y ` h c { ' { Q * & g T &.i.i , 3 2 0 0 0 0 0 0 ",
"0 0 0 0 0 0 0 3 4 3 q E p . F G.d d s S 7.} G z J %.G E u t Y D D ~ u * d D @.<.w 2 3 3 0 0 0 0 0 0 ",
"0 0 0 0 0 0 0 0 0 0 3 < e , 8 O.g b d c 3.~ g u u E I H z & s I z ~ G * 1 a V , 3 4 4 0 0 0 0 0 0 0 ",
"0 0 0 0 0 0 0 0 0 0 0 , 3 4 q D n d = d $.~ y y y S z s s * & * n ^ +.e 2 5 , 0 0 0 0 0 0 0 0 0 0 0 ",
"0 0 0 0 0 0 0 0 0 0 0 3 4 0 3 P V c 8 # u I d y = U ^ l b # + # v C V q 3 0 0 3 0 0 0 0 0 0 0 0 0 0 ",
"0 0 0 0 0 0 0 0 0 0 0 0 0 0 4 2 4 0 4 3 r ~ I y : a E h p r 3 0 3 5 2 0 0 4 3 0 0 0 0 0 0 0 0 0 0 0 ",
"0 0 0 0 0 0 0 0 0 0 0 0 0 0 3 0 0 3 4 0 4 N N 0 0 3 3 4 0 0 0 0 3 0 0 0 0 0 0 0 0 0 0 0 0 0 0 0 0 0 ",
"0 0 0 0 0 0 0 0 0 0 0 0 0 0 0 3 0 0 0 0 3 2 3 4 0 0 0 0 0 0 0 0 0 0 3 0 0 0 0 0 0 0 0 0 0 0 0 0 0 0 ",
"0 0 0 0 0 0 0 0 0 0 0 0 0 0 0 0 0 4 0 0 0 0 0 0 0 4 3 0 0 0 0 0 0 0 0 0 0 0 0 0 0 0 0 0 0 0 0 0 0 0 ",
"0 0 0 0 0 0 0 0 0 0 0 0 0 0 0 0 0 0 0 0 0 0 0 0 0 0 0 0 0 0 0 0 0 0 0 0 0 0 0 0 0 0 0 0 0 0 0 0 0 0 ",
"0 0 0 0 0 0 0 0 0 0 0 0 0 0 0 0 0 0 0 0 0 0 0 0 0 0 0 0 0 0 0 0 0 0 0 0 0 0 0 0 0 0 0 0 0 0 0 0 0 0 ",
"0 0 0 0 0 0 0 0 0 0 0 0 0 0 0 0 0 0 0 0 0 0 0 0 0 0 0 0 0 0 0 0 0 0 0 0 0 0 0 0 0 0 0 0 0 0 0 0 0 0 "
};
