/* XPM */
static char *result[] = {
/* columns rows colors chars-per-pixel */
"70 70 177 2 ",
"   c #20190F",
".  c #272115",
"X  c #302A1C",
"o  c #332D22",
"O  c #383127",
"+  c #3B352B",
"@  c #3E3A2D",
"#  c #35322B",
"$  c #423B2E",
"%  c #443D34",
"&  c #463F39",
"*  c #464134",
"=  c #444138",
"-  c #4F463D",
";  c #4F4B3F",
":  c #4E4633",
">  c #524B3B",
",  c #4E4E46",
"<  c #544E42",
"1  c #545044",
"2  c #595146",
"3  c #55524C",
"4  c #5B564C",
"5  c #5C594D",
"6  c #5A5752",
"7  c #5E5A51",
"8  c #625C4F",
"9  c #635D55",
"0  c #656254",
"q  c #66645B",
"w  c #6B665C",
"e  c #6B6155",
"r  c #726D5C",
"t  c #77715F",
"y  c #6E6B64",
"u  c #6F6E69",
"i  c #736E68",
"p  c #736C66",
"a  c #757265",
"s  c #75726C",
"d  c #7A746C",
"f  c #7C7868",
"g  c #767571",
"h  c #7C7B74",
"j  c #7E7E7A",
"k  c #867F6F",
"l  c #817E77",
"z  c #827F78",
"x  c #838075",
"c  c #888272",
"v  c #84837C",
"b  c #8C877C",
"n  c #8D897D",
"m  c #918A77",
"M  c #99907F",
"N  c #AE9E7A",
"B  c #858582",
"V  c #8A8782",
"C  c #878882",
"Z  c #8B8B84",
"A  c #8E8D8A",
"S  c #928E83",
"D  c #908F8B",
"F  c #8F908B",
"G  c #959284",
"H  c #999480",
"J  c #94928C",
"K  c #9A948C",
"L  c #9B998F",
"P  c #969692",
"I  c #999694",
"U  c #9B9B95",
"Y  c #9C9D9A",
"T  c #A29C8B",
"R  c #A59F91",
"E  c #A09F9B",
"W  c #9FA09A",
"Q  c #AAA48E",
"!  c #A5A394",
"~  c #ABA496",
"^  c #AEA996",
"/  c #A3A39D",
"(  c #AAA59B",
")  c #AEAB9E",
"_  c #B4A997",
"`  c #B2AA9C",
"'  c #BDB59E",
"]  c #B7A786",
"[  c #A5A5A2",
"{  c #A8A7A2",
"}  c #ABAAA5",
"|  c #ADAEAB",
" . c #B2AEA2",
".. c #B2ADA9",
"X. c #B2B0A4",
"o. c #BCB5A5",
"O. c #B4B3AB",
"+. c #BCB7AD",
"@. c #BEBAAC",
"#. c #AFB1B0",
"$. c #B5B5B3",
"%. c #B7B9B4",
"&. c #BCBBB4",
"*. c #BCBDBB",
"=. c #BAB5BC",
"-. c #C4B8A8",
";. c #C2B9A5",
":. c #C2BEB4",
">. c #BFC1BE",
",. c #D0C4AC",
"<. c #C6C2B4",
"1. c #C9C6B5",
"2. c #C2C2BD",
"3. c #CAC5BB",
"4. c #CBC8BD",
"5. c #D0C9B9",
"6. c #D3CDB3",
"7. c #C5C5C3",
"8. c #C8C7C4",
"9. c #CBCBC6",
"0. c #CBCCCA",
"q. c #D2CDC4",
"w. c #D0CFCB",
"e. c #CED0CB",
"r. c #DCD3C2",
"t. c #D4D2CD",
"y. c #DAD6CC",
"u. c #DAD9CE",
"i. c #D2D2C6",
"p. c #CFD1D0",
"a. c #D5D5D3",
"s. c #DAD7D3",
"d. c #DCDBD5",
"f. c #D5D6D8",
"g. c #D7D9D8",
"h. c #DDDDDD",
"j. c #E0D6D7",
"k. c #E2DDD3",
"l. c #E0DEDD",
"z. c #DEE0DD",
"x. c #E5E2D5",
"c. c #E9E2D4",
"v. c #E1E1DE",
"b. c #EAE5DD",
"n. c #F1EADC",
"m. c #F6F1DE",
"M. c #FCF0D8",
"N. c #DEDEE1",
"B. c #E2DFE1",
"V. c #DFE1E2",
"C. c #E1E1E1",
"Z. c #E8E5E3",
"A. c #E7E8E6",
"S. c #EAE9E5",
"D. c #E5E5E9",
"F. c #E8E7EC",
"G. c #E7E9EA",
"H. c #EAEAEA",
"J. c #F3EEE3",
"K. c #F1EEEA",
"L. c #EFF1ED",
"P. c #F4F1E6",
"I. c #F3F2ED",
"U. c #FAF4EB",
"Y. c #F9F9EF",
"T. c #FAF4E6",
"R. c #EDEDF0",
"E. c #F3EFF2",
"W. c #EFF1F0",
"Q. c #F3F3F2",
"!. c #FCF5F3",
"~. c #F6F8F5",
"^. c #FDFCF5",
"/. c #F6F6F8",
"(. c #F8F6F9",
"). c #F7F8FC",
"_. c #FEFEFD",
/* pixels */
"C.C.C.C.B.C.C.C.v.C.C.v.C.V.C.C.C.C.C.C.C.B.C.C.C.B.V.v.C.C.C.B.C.C.C.C.C.C.V.v.C.C.C.C.C.C.C.C.C.C.V.v.C.C.B.C.C.C.B.C.C.C.C.C.C.C.C.C.V.v.",
"C.C.C.C.C.C.C.C.C.C.C.B.C.C.C.C.C.C.C.C.v.V.C.C.C.C.C.C.C.C.C.C.C.C.C.C.B.C.C.C.C.C.C.B.C.C.C.C.B.C.C.C.v.V.C.C.C.C.C.C.C.C.V.C.C.B.C.C.C.C.",
"C.C.C.C.C.C.C.v.V.C.C.C.B.C.C.C.C.C.C.C.C.C.C.C.C.C.C.C.C.C.C.C.C.C.C.C.C.C.C.C.v.C.C.C.V.C.C.C.C.C.C.C.C.C.C.C.C.C.V.C.C.C.v.C.C.C.v.V.C.C.",
"C.C.C.C.V.C.C.C.C.C.C.C.v.C.C.C.C.C.C.C.C.C.C.C.C.C.C.C.C.C.z.C.V.v.C.C.C.C.C.C.V.C.C.C.v.C.C.C.C.C.C.C.C.C.C.C.C.C.v.C.C.C.C.C.C.C.C.C.C.C.",
"C.C.C.C.C.C.C.C.C.C.C.C.C.C.C.C.C.C.C.C.C.V.C.C.C.C.C.C.C.C.C.C.C.C.V.B.C.B.V.v.C.C.B.C.B.C.C.C.C.C.C.C.C.C.C.C.C.C.v.V.B.C.C.C.C.C.C.C.C.C.",
"v.C.C.C.C.v.C.C.C.C.C.C.C.V.C.C.C.V.l.C.B.C.C.C.C.C.C.C.V.C.C.C.C.C.v.C.C.C.C.C.C.C.C.C.C.v.V.C.B.C.C.C.C.C.C.C.C.C.C.C.C.C.v.V.C.C.C.C.C.C.",
"B.C.C.C.C.C.B.C.C.v.V.C.C.C.C.C.C.C.C.C.C.v.C.C.V.C.C.C.v.C.B.C.C.C.C.C.C.C.C.C.V.v.C.C.C.C.C.C.z.C.C.C.C.C.C.B.C.C.B.C.C.C.C.C.B.C.V.C.C.C.",
"V.C.C.C.V.C.C.C.C.C.C.B.v.C.C.C.C.C.C.C.C.C.C.C.v.B.C.C.C.C.C.C.C.C.C.C.C.C.C.C.C.C.C.C.C.C.C.C.C.C.C.C.C.C.V.v.C.C.C.C.C.C.C.C.C.C.v.C.C.C.",
"C.C.C.C.C.C.C.C.C.B.C.C.C.B.V.C.C.C.C.v.C.C.v.C.C.C.C.C.C.C.C.C.C.C.C.C.C.C.C.C.C.V.v.C.C.C.C.C.C.C.C.C.C.v.C.C.C.C.C.C.C.C.C.C.C.C.C.z.C.C.",
"C.C.C.v.C.C.C.C.C.V.C.v.C.C.C.C.C.C.C.C.C.C.C.C.C.C.V.C.C.C.C.V.C.C.v.V.C.C.B.C.C.C.C.C.B.v.C.C.C.v.V.C.C.V.C.C.C.C.C.C.C.C.z.B.C.C.C.B.C.C.",
"C.C.C.C.C.C.C.C.C.C.C.C.C.C.C.C.C.V.C.C.C.B.V.C.C.C.C.C.C.C.C.C.C.C.B.C.C.C.C.C.C.C.C.C.C.V.C.C.C.C.C.B.C.C.C.C.B.C.C.C.C.C.C.C.C.C.C.C.C.C.",
"C.C.C.C.N.C.C.C.C.C.C.C.C.C.v.C.B.C.C.v.C.C.C.C.C.C.v.C.C.C.C.C.C.C.C.C.v.V.C.C.B.C.C.C.C.C.C.C.C.C.C.C.C.C.B.C.V.v.C.C.C.C.C.C.C.C.C.C.C.C.",
"C.C.V.v.l.C.C.C.C.v.C.C.C.V.C.C.C.C.C.C.C.V.C.C.C.C.C.C.C.C.C.C.C.C.C.C.C.C.C.C.C.C.C.C.C.B.C.C.C.C.C.B.C.C.C.C.v.V.C.C.C.C.C.C.C.C.B.C.B.C.",
"C.B.C.C.C.C.C.C.C.B.C.C.C.C.C.B.C.V.C.C.C.C.C.C.C.v.C.C.C.C.C.C.C.C.C.C.C.C.C.C.v.V.C.C.C.z.C.C.C.C.v.V.v.V.C.C.C.C.C.C.C.C.C.C.C.C.V.v.C.C.",
"C.C.C.C.C.C.C.V.C.C.V.C.C.C.C.C.C.C.C.v.C.C.v.B.C.C.C.V.C.C.C.C.C.C.C.C.V.C.C.B.C.C.C.C.C.C.C.C.C.C.C.C.C.C.C.C.C.C.C.C.C.B.C.C.C.C.C.C.C.V.",
"C.C.C.C.C.C.C.C.C.C.C.C.C.C.C.v.C.C.B.C.C.C.C.C.C.C.C.C.C.C.C.V.V.v.B.C.v.C.C.C.C.C.C.C.C.C.C.C.C.C.C.C.C.C.C.C.B.C.C.C.C.C.v.V.C.C.C.C.C.v.",
"C.C.C.C.C.C.C.C.C.C.C.C.C.C.C.C.C.C.C.C.C.C.C.C.V.V.C.v.Z.B.Z.v.N.A.V.N.N.A.v.C.v.z.C.C.h.v.Z.N.C.C.C.C.C.C.C.C.C.C.C.C.C.C.C.B.C.C.C.v.C.C.",
"C.C.C.C.C.C.z.B.C.C.C.C.C.C.C.C.C.C.C.C.C.C.C.C.C.v.z.v.C.B.h.V.z.h.h.Z.N.z.V.C.v.D.C.D.C.V.N.C.C.C.B.C.C.C.C.C.B.C.C.C.C.C.C.C.C.B.C.V.C.C.",
"B.C.C.C.C.C.C.C.C.C.C.B.C.C.C.v.C.C.C.B.C.B.V.v.h.Z.C.N.N.V.C.C.h.C.h.v.v.C.C.N.V.N.C.C.C.C.C.C.C.C.V.v.C.z.C.C.C.C.C.C.C.C.V.v.C.C.C.C.C.C.",
"V.v.C.C.C.C.C.C.C.z.C.C.C.C.B.V.C.C.V.v.C.C.C.C.v.N.F.A.C.v.C.C.v.v.z.v.h.h.B.F.G.C.A.C.C.h.C.C.C.C.C.C.C.C.C.C.C.C.V.v.C.C.C.C.C.C.C.C.C.C.",
"C.v.C.C.C.C.C.C.C.C.C.C.C.C.v.V.C.C.C.C.C.C.C.C.A.C.A.h.a.d.d.j.S.I.Q.A.s.Z.B.a.C.d.a.t.N.D.B.v.C.C.C.C.C.C.C.C.V.B.C.C.C.C.C.C.C.C.C.v.C.C.",
"C.V.C.C.C.C.C.C.C.C.C.C.C.C.C.C.C.v.V.C.C.C.C.C.V.v.q.k.U.^.K.!.^._._._.S.s.d._.I.y.3.k.d.C.B.B.C.C.C.C.C.C.C.B.v.C.C.C.C.C.B.C.C.C.C.V.C.C.",
"C.C.C.C.C.B.C.V.v.C.C.C.C.C.C.C.C.C.C.C.C.C.V.v.v.@.,.M.T.~.^.^._._._._._.Z.i.@.^.r.o.1.y.C.V.A.C.C.V.C.C.V.v.C.C.C.C.C.C.C.V.v.B.C.C.C.C.C.",
"B.C.C.C.C.C.C.v.V.C.C.C.B.C.C.C.C.C.C.C.B.C.C.C.s.' N ] n._._._._._._._._.I.P.T e ;.6.^ t.D.V.V.C.C.v.B.C.C.C.C.C.C.C.C.C.C.C.C.C.C.C.v.V.C.",
"C.C.C.C.C.C.C.C.C.C.C.C.C.C.C.C.C.C.C.C.C.C.D.D.r.m m x._._._._._._._._._.Q.H._.` > Q T 4.Z.V.D.B.D.C.h.Z.C.N.D.C.C.C.C.C.C.C.C.C.C.C.C.V.v.",
"C.C.C.C.C.C.C.C.C.C.B.C.C.C.B.C.B.C.h.C.D.D.N.C.+.T ^.^._._._._._.~._._.~.A.Q.s.^.u.^ 1.k.A.D.V.C.C.C.C.z.h.D.N.C.C.C.B.C.C.C.C.C.C.C.C.C.C.",
"C.C.V.v.V.v.C.C.C.C.V.v.V.v.C.C.C.C.C.V.C.h.z.Z.Z.^.^._._._._.)._.E Z._.H.~.A.Z.z.A.^.v.s.D.N.N.C.C.N.D.C.z.C.C.C.C.C.v.C.B.C.V.C.C.v.V.B.C.",
"C.C.C.C.B.C.C.C.C.C.C.C.C.C.C.C.v.h.Z.N.C.z.P.Y._._._._._._._._._.~.).I.A.G.h.C.G.z.z.Z.C.d.Z.Z.A.C.D.h.A.h.C.C.C.C.C.V.C.C.C.v.C.C.B.C.C.C.",
"C.B.C.C.C.C.C.C.C.C.C.C.C.C.C.C.v.h.C.C.h.S.^.^.~._._._._./.~.A.Q.R.Z.Z.0.N.C.z.C.h.v.z.j.y.y.q.v.v.A.C.h.C.A.N.C.v.C.C.C.C.C.C.C.C.C.C.C.C.",
"C.C.C.C.B.C.C.C.C.C.C.C.C.C.C.C.C.C.h.b.d.P.T.P.~._._.(.Q.L.W.W.C.A.A.N.>.f.V.h.t.g.e.u.y.:.5.;. .Z.l.F.Z.V.N.C.C.V.C.C.C.C.C.C.C.C.C.C.B.C.",
"C.V.v.C.C.v.C.C.C.V.v.C.C.V.v.B.V.C.h.d.x.P.T.T.^.I._.(.~.L.L.V.G.C.N.g.g.h.g.g.h.7.Z.2.s.q.;.-.~ ( b.C.z.Z.C.B.C.C.C.C.C.C.V.v.C.C.C.C.z.C.",
"C.C.C.C.C.V.C.C.C.C.B.C.C.C.C.C.V.D.z.i.x.c.J.T.Y.!.E.R.H.L.G.V.V.D.N.f.N.8.h.7.N.7.9.B.$.q.3.` _ _ ..F.C.C.C.C.C.C.C.C.B.C.C.C.C.C.C.C.C.C.",
"C.C.C.C.C.C.C.v.V.C.C.C.C.C.C.C.Z.B.k.k.k.n.n.U.J.K.G.H.V.R.N.V.h.h.V.7.V.*.0.0.>.d.O.t.A.} %.1.M Q X.e.F.N.C.C.B.C.C.C.B.C.C.C.C.V.v.C.C.C.",
"C.C.C.v.C.C.C.C.C.C.C.C.C.C.C.C.N.l.S.q.k.n.y.^.d.~.f.W.0.G.7.g.e.e.f.>.f.*.*.p.} e.0.} t.t.L ( >.m x O.C.D.D.Z.C.C.C.C.C.C.V.v.B.C.C.C.C.C.",
"C.C.C.C.C.C.C.C.v.C.C.C.C.C.C.C.D.s.$.q.m.-.!.u.b.S.0.H.*.W.#.f.>.>.p.#.7.*.[ 0.#.| g.} [ e.u.x x @.f } A.N.Z.C.C.C.C.C.C.C.C.C.C.C.C.C.C.C.",
"C.C.V.B.C.C.V.C.C.C.C.C.C.C.C.C.v.v.y.J. .b.^...^.7.z.f.>.L.[ f.%.$.0.| $.7.Y *.>.P 2.0.P / 4.O.a f ! %.A.Z.V.Z.C.V.C.C.C.C.C.C.C.C.C.C.C.C.",
"C.V.v.C.C.C.C.C.C.C.C.C.C.B.C.C.C.h.v.) 3.^.O.d.I.{ /.O.9.d.U e.| [ *.[ [ >.Y Y 9.W W 7.#.v } o. .0 5 W v.A.D.v.C.C.C.z.C.C.C.v.C.C.V.C.C.C.",
"C.B.C.C.C.C.C.B.B.z.N.C.C.C.C.C.z.Z.&.! H.q.) I.2.} F.P g.2.J 9.W Y $.Y Y *.[ A %.O.v [ 7.v w L X.G q t.A.V.A.C.C.C.C.B.C.B.C.V.C.C.v.C.C.C.",
"C.C.C.C.v.C.C.C.C.C.C.C.C.C.C.C.N.A.d.y.n.L %.P.K 2.9.B v.| J 8.W F $.Y P #.#.C P >.n v { O.q 0 G G L z.A.V.V.C.C.C.C.C.C.C.C.C.C.B.C.C.C.V.",
"C.C.C.C.C.C.C.C.C.C.C.C.C.C.C.C.F.v.v.d.) Z a.8.v s.$.V d.U A 8.P Z #.F A W [ B j #.W q P } G ; 5 h O.A.A.V.G.V.C.C.C.C.C.C.C.C.C.C.C.C.C.v.",
"C.C.C.C.C.v.C.C.C.C.C.C.N.C.C.C.C.C.C.9.B K k.K V k.S D t.S C =.B Z W F g A W A u P { g 3 Z ~ t @ 5 8.K.C.D.Z.C.C.C.C.C.C.C.C.C.C.C.C.v.C.C.",
"V.C.C.C.C.V.C.B.C.C.C.C.C.C.C.v.C.G.h.I.:.:.:.c I q.l I 8.v C $.j h W F j v P F q g } j = y b H , K Z.C.G.C.C.v.C.C.v.C.C.C.C.C.C.C.C.V.C.C.",
"v.C.C.C.C.C.C.C.C.C.C.C.C.C.C.C.N.Z.h.Z.y.O.H 0 ....9 [ 7.y h } j s P Z s g C P y 7 d v q @ r I A d.A.C.D.C.h.C.C.C.C.N.B.C.C.C.C.C.C.C.C.C.",
"B.C.C.C.C.C.C.C.v.C.C.C.C.C.C.C.N.D.D.z.H.<.~ v ( K 8 E ..q x / d a F C u u h v p * w b a # , i w.I.B.D.D.C.z.Z.C.C.C.C.C.C.C.C.C.C.B.C.B.C.",
"C.C.C.C.C.C.C.C.C.C.C.V.C.C.C.C.C.C.l.h.A.H.Z.g.^ t 2 R K 4 a S w q x h y 9 y w d + & 5 b 9 P p.Z.F.C.C.C.V.D.h.C.C.C.C.C.C.C.C.C.C.C.v.C.C.",
"B.C.C.C.V.v.C.C.C.C.C.B.C.C.v.C.Z.C.C.D.C.D.C.B.M - > M e % 8 b 8 < p r 9 % 4 q 9 O   % s j d./.Z.A.N.D.V.C.C.C.C.C.C.C.V.v.C.C.C.C.C.V.C.C.",
"C.C.C.C.C.C.C.B.v.C.C.C.B.C.C.C.z.h.C.C.N.A.H.R.:.I T t : $ - c < + 4 5 , o @ > 9 4 + 3 y a.H.N.D.A.h.C.V.Z.h.C.C.C.C.C.C.C.C.C.C.C.C.B.C.C.",
"V.C.v.V.C.C.C.C.C.C.C.C.C.V.C.V.V.Z.C.N.C.C.V.Z.F.E.B.r > $ O t > X $ 1 % + . X * > +.S.h.(.C.H.h.N.Z.V.h.V.Z.N.C.C.z.B.C.C.C.C.C.C.C.v.V.C.",
"v.C.C.C.C.C.C.C.C.C.C.C.C.C.C.C.v.C.C.C.C.C.C.C.V.A.A.g.[ A F 6 % o $ 3 + # J J B 7.G.G.D.Z.C.C.C.C.C.C.C.B.V.C.C.C.C.C.C.C.C.C.B.z.C.C.C.C.",
"C.C.C.C.C.C.C.C.C.C.C.C.C.C.V.B.V.B.C.C.C.C.C.v.D.G.C.A.H.I.L.t.( ( 8.&.O.7.Z.R.E.~.C.V.Z.C.C.C.C.C.C.C.C.C.C.C.v.C.N.C.C.C.C.C.C.C.C.C.C.C.",
"C.B.C.C.C.C.C.N.B.V.v.C.C.C.v.C.C.C.C.C.C.C.C.V.h.F.Z.C.A.h.z.Z.E.H.W.Z.W.W.C.N.h.C.A.Z.D.V.V.C.v.C.C.C.C.C.C.C.C.C.C.C.C.C.C.C.C.C.C.C.C.C.",
"V.C.C.C.C.v.C.C.C.C.C.C.C.C.C.C.C.C.C.C.C.C.C.B.Z.C.V.C.Z.D.A.G.B.C.N.D.V.g.G.H.H.D.C.h.h.Z.Z.h.C.C.C.C.C.v.C.C.C.C.C.C.B.C.C.v.C.C.C.C.C.C.",
"v.C.C.B.V.v.C.C.C.C.C.C.C.C.C.C.C.v.C.C.C.V.C.C.B.h.C.Z.V.C.C.D.H.D.G.A.G.A.C.h.N.h.C.Z.C.N.C.C.C.C.C.C.C.C.C.C.C.C.C.C.C.V.C.C.V.v.C.C.C.C.",
"C.C.C.C.C.C.C.C.C.C.C.C.C.C.C.C.V.C.C.C.C.C.C.B.B.C.C.h.C.C.N.V.C.Z.C.l.V.Z.C.Z.Z.N.V.C.C.C.h.V.C.C.C.C.C.C.C.C.C.v.C.C.C.C.C.C.C.B.C.C.V.C.",
"C.C.C.C.C.C.C.C.v.B.V.C.C.C.l.C.B.C.C.C.v.C.C.C.C.C.C.V.A.C.C.C.v.C.B.C.Z.h.h.h.C.C.C.N.h.Z.C.C.C.C.C.C.C.C.C.V.C.C.V.C.C.C.C.v.C.C.C.C.v.C.",
"C.C.C.C.C.C.C.C.C.C.C.C.C.C.C.C.C.C.C.C.C.C.C.C.C.B.C.Z.N.h.Z.h.C.h.Z.C.V.V.Z.V.C.V.Z.C.C.C.h.C.C.N.C.C.v.C.B.C.C.C.B.C.C.C.C.C.C.C.C.C.C.C.",
"V.B.C.C.C.C.C.C.C.V.B.C.V.C.C.C.C.V.C.C.C.C.C.C.C.C.C.C.C.C.C.B.C.C.C.C.C.C.C.C.C.C.C.B.V.v.C.C.C.C.C.C.C.C.B.v.C.C.C.C.C.C.C.V.C.V.v.C.C.C.",
"C.C.C.C.C.V.B.C.C.C.C.C.C.C.C.C.C.C.C.v.C.B.v.C.v.C.B.C.C.C.C.C.C.C.C.C.C.C.C.C.C.C.C.C.C.C.C.C.C.C.B.v.C.C.C.V.C.C.C.C.C.C.l.C.C.C.C.C.C.C.",
"C.v.C.C.C.C.C.C.C.C.C.v.C.C.C.C.C.C.C.C.C.C.C.C.C.C.C.C.C.v.C.C.C.C.C.C.C.C.C.C.C.C.C.v.C.C.C.C.C.C.C.V.C.C.C.C.B.v.C.C.C.C.C.C.C.C.C.C.C.C.",
"C.C.C.C.C.v.C.C.C.C.C.C.C.C.C.v.C.C.C.B.C.C.C.V.V.C.C.V.C.C.V.C.C.C.C.C.B.C.C.C.C.C.C.V.C.C.C.C.C.C.C.C.C.C.C.C.V.C.C.C.C.C.C.C.C.C.B.C.B.C.",
"C.C.C.C.C.C.C.v.C.C.C.C.B.C.C.C.C.C.V.v.C.C.C.C.C.C.C.C.C.C.C.C.C.C.C.C.v.C.C.C.C.C.C.C.C.C.C.C.C.v.C.C.C.C.C.C.C.C.C.C.C.C.C.C.C.C.V.C.C.C.",
"C.C.C.C.C.V.C.C.C.C.C.C.V.C.C.C.C.C.C.C.l.C.C.C.C.C.C.C.C.C.C.v.C.C.C.C.V.C.C.C.C.C.B.C.B.C.C.C.C.V.C.C.C.C.C.C.C.C.C.C.C.C.C.C.C.C.v.C.C.C.",
"C.l.C.V.C.C.C.C.C.C.N.C.C.C.C.v.C.C.C.C.C.C.C.C.V.C.C.B.C.C.C.V.C.C.V.C.C.C.C.C.C.C.v.V.C.C.v.C.C.C.C.B.C.C.C.C.C.B.C.C.V.C.C.C.C.C.C.B.C.V.",
"C.C.C.C.B.C.C.v.C.C.C.C.C.C.C.C.C.C.C.C.C.C.C.C.C.C.C.v.C.C.B.C.v.C.B.v.C.C.C.C.C.C.C.C.C.C.V.C.C.C.C.C.C.C.C.C.C.z.C.C.v.C.B.C.C.C.C.C.C.v.",
"C.C.C.C.C.V.v.C.C.C.B.C.C.C.B.C.C.C.C.C.C.C.C.C.C.C.C.C.C.C.C.C.C.C.C.C.C.C.C.C.C.C.B.C.C.C.C.C.C.C.C.B.C.C.C.C.C.C.C.C.C.C.C.C.C.C.C.C.C.C.",
"C.C.C.C.B.C.C.C.v.V.C.C.C.C.C.C.C.C.v.V.C.C.C.C.C.C.C.C.C.C.z.B.v.V.C.C.C.B.C.C.C.C.v.V.z.B.C.C.C.C.v.C.C.C.C.C.v.V.C.C.C.C.C.C.C.C.C.C.C.C.",
"C.C.C.C.C.C.C.C.C.C.C.C.C.V.v.C.C.C.C.C.v.C.B.C.B.C.C.C.C.C.C.C.C.C.C.C.C.V.v.C.C.C.C.C.C.C.C.C.C.C.C.V.C.C.C.C.C.C.C.C.C.B.V.C.C.C.C.v.C.C.",
"C.C.C.C.C.C.C.C.C.C.C.C.C.C.C.C.C.C.C.C.V.C.C.C.V.v.C.C.C.C.C.C.C.C.C.B.C.C.C.C.C.C.C.C.C.C.C.C.C.C.C.C.C.C.v.V.B.C.C.C.C.C.v.C.C.C.B.V.C.C.",
"C.C.C.C.C.B.z.C.B.C.C.C.C.C.C.C.B.C.V.v.C.C.C.C.B.C.v.V.C.C.C.C.v.C.C.C.C.C.C.C.C.C.B.V.v.C.C.C.C.C.V.C.C.C.C.C.v.C.C.C.C.C.C.C.C.C.C.C.C.B.",
"C.C.C.C.C.C.C.C.v.V.C.C.C.C.C.C.C.C.C.C.C.C.C.C.C.C.C.C.C.C.C.C.V.C.C.C.C.C.C.C.C.C.C.C.C.C.C.C.C.C.v.C.B.C.C.C.V.C.C.C.C.C.B.C.C.C.C.C.V.v."
};
