/* XPM */
static char *result[] = {
/* columns rows colors chars-per-pixel */
"50 50 230 2 ",
"   c #030403",
".  c #0A0A07",
"X  c #06090A",
"o  c #0B0C0B",
"O  c #0A0704",
"+  c #0F110E",
"@  c #13130E",
"#  c #19160C",
"$  c #080E12",
"%  c #0D1214",
"&  c #0C161B",
"*  c #0A171D",
"=  c #131513",
"-  c #191713",
";  c #171815",
":  c #1B1B15",
">  c #141A1B",
",  c #1D1D19",
"<  c #101518",
"1  c #100C06",
"2  c #211E16",
"3  c #211F1A",
"4  c #1F201B",
"5  c #1E2016",
"6  c #232215",
"7  c #23221C",
"8  c #29261D",
"9  c #2B291D",
"0  c #2A2615",
"q  c #312D1C",
"w  c #000C25",
"e  c #00142D",
"r  c #021C2D",
"t  c #091B26",
"y  c #121E23",
"u  c #001731",
"i  c #001D34",
"p  c #001F38",
"a  c #0C212E",
"s  c #06202F",
"d  c #172328",
"f  c #002137",
"g  c #0A2333",
"h  c #002238",
"j  c #06283F",
"k  c #0B293D",
"l  c #0A2739",
"z  c #142D3C",
"x  c #162933",
"c  c #1D323D",
"v  c #242522",
"b  c #292721",
"n  c #272923",
"m  c #2B2B23",
"M  c #2C2D29",
"N  c #222B2B",
"B  c #322F24",
"V  c #302F2A",
"C  c #2E312A",
"Z  c #2E3026",
"A  c #333225",
"S  c #383625",
"D  c #33342C",
"F  c #39372B",
"G  c #36382C",
"H  c #3C3A2D",
"J  c #252F32",
"K  c #2B3233",
"L  c #26353A",
"P  c #343532",
"I  c #373A33",
"U  c #3B3C33",
"Y  c #343D3C",
"T  c #3A3A35",
"R  c #423E2C",
"E  c #453F27",
"W  c #413F32",
"Q  c #3C413C",
"!  c #3F4035",
"~  c #43412D",
"^  c #444234",
"/  c #4A4635",
"(  c #4D4A36",
")  c #43443B",
"_  c #494639",
"`  c #4C4A3C",
"'  c #47483C",
"]  c #504C35",
"[  c #514E3B",
"{  c #54513E",
"}  c #595439",
"|  c #4F503E",
" . c #0C2C42",
".. c #1C3543",
"X. c #173547",
"o. c #102E44",
"O. c #233945",
"+. c #2E3D43",
"@. c #223A48",
"#. c #223F50",
"$. c #3C4441",
"%. c #33454D",
"&. c #374447",
"*. c #374B55",
"=. c #2F4856",
"-. c #4C4C43",
";. c #434B46",
":. c #504E41",
">. c #4D5249",
",. c #545343",
"<. c #5A5543",
"1. c #5C5945",
"2. c #54554B",
"3. c #5C5B4B",
"4. c #59574A",
"5. c #5D5D52",
"6. c #545B58",
"7. c #455153",
"8. c #635E45",
"9. c #625E4B",
"0. c #615F50",
"q. c #5C625C",
"w. c #64614C",
"e. c #6A654D",
"r. c #6D684D",
"t. c #756D4D",
"y. c #646352",
"u. c #6B6753",
"i. c #6C6A54",
"p. c #63655A",
"a. c #6C6B5C",
"s. c #65695D",
"d. c #726D55",
"f. c #716D59",
"g. c #74725D",
"h. c #7B755D",
"j. c #797459",
"k. c #6E705F",
"l. c #475D68",
"z. c #566567",
"x. c #5C6C71",
"c. c #6A6D62",
"v. c #726F61",
"b. c #62716E",
"n. c #747365",
"m. c #7D7A63",
"M. c #7B7B6B",
"N. c #797765",
"B. c #646E73",
"V. c #797B73",
"C. c #6C7975",
"Z. c #837C5D",
"A. c #847B58",
"S. c #837D64",
"D. c #827E6A",
"F. c #887F64",
"G. c #7F8377",
"H. c #8D8466",
"J. c #84816C",
"K. c #8C866B",
"L. c #8F896C",
"P. c #848064",
"I. c #938C6D",
"U. c #968C67",
"Y. c #9A926F",
"T. c #858473",
"R. c #8A8672",
"E. c #8E8A73",
"W. c #898A7C",
"Q. c #938D74",
"!. c #918F7C",
"~. c #969173",
"^. c #9B9275",
"/. c #93927C",
"(. c #9C967A",
"). c #9D987C",
"_. c #9E9876",
"`. c #A39979",
"'. c #AAA27D",
"]. c #B5A97E",
"[. c #6B7E8A",
"{. c #7C8A8F",
"}. c #8B9188",
"|. c #9D9A82",
" X c #979684",
".X c #9A9B94",
"XX c #8F9597",
"oX c #A49E81",
"OX c #A39E88",
"+X c #A5A283",
"@X c #ABA484",
"#X c #AAA58A",
"$X c #A8A48D",
"%X c #B2AD8E",
"&X c #BBB08C",
"*X c #A8A796",
"=X c #B3AD92",
"-X c #B2AF9C",
";X c #BBB595",
":X c #BAB699",
">X c #B6B7AA",
",X c #B8B8B6",
"<X c #95A2A9",
"1X c #C2BD9C",
"2X c #C4BB99",
"3X c #C4BFA5",
"4X c #C5C2AD",
"5X c #CBC5A6",
"6X c #D3CBA8",
"7X c #CAC8B6",
"8X c #DBD5B6",
"9X c #D0CFB6",
"0X c #E1DBBA",
"qX c #E0D9B7",
"wX c #E9E2BC",
"eX c #F0E3B2",
"rX c #CFC396",
"tX c #DBD8C6",
"yX c #D6DAD8",
"uX c #D0CEC2",
"iX c #E3DDC2",
"pX c #E1DFD0",
"aX c #E8E5C9",
"sX c #EBE8D3",
"dX c #F7F3D9",
"fX c #F1EED6",
"gX c #FAF9EB",
"hX c #FFFFFF",
"jX c #FFFEF7",
"kX c #EBEDE6",
/* pixels */
"h h h h h h h f h h h h h h h f f f f e  .w XXyXi j i i i l h i j i p l u p h h h h h h h h h h h h ",
"h h h h h h h f h h i h h h f h h f f e j e x.hX<Xe h e l =.X.i p p i i  .i h h h h h h h h h h h h ",
"h h h h h h h f h h h p h h h f f f f f p a 2 >XXXu h u x +.z i p p  .X.e h i i h f h h h h h h h h ",
"h h h h h h h h i l i , i h f h f f h f p t B ^ M z h k O.L l i p u *.yX[.e j r f h h h f h h f h h ",
"h h f f f h h h h h r 2 y h h h f f h i p > 9 ( ' &.g x.q.d z u p o.%.6.V.*.u j i f h h h f f f h h ",
"f h h f h h h h h h g 2 t h h h f f p h h > A ^ R -.;.G.;.x l e @.6.>.F.&.*.p u i f h h h h f f h h ",
"h h f f h h h h h h r 2 y h p h f h h i u d F ` F ) H 5.;.l p u *.0.9.H.6...p p h h h h h h h f h h ",
"h h f f h h h h h h g 7 y p h h h j u %.>.> H ^ S g.2.' ) 6.o.u +.3.9.d.;.O.u u u f h h f f h f h f ",
"h h h h h h h h h h a 4 y l p h p h p N B ; H ^ _ S.#X| 0.2.g ..s.>.e.f.-.+. .@. .r h f f h h h h f ",
"h h h h h h f h f h g n J l p h i u h o o 9 F ,.H ~.1X1.w.>.Q 7.s.-.<.u.4.-.c.p.z.#.u h i f f h h h ",
"h h h h h h h h h h g 5 Y O.p h h h t # 6 8 S g.~.6X5Xr.1.d.n.5.4.-.W 8.0.5.^.S.-.%.i h f f f h h h ",
"h h h h h h h h h h s = Y *.i h u u < 1 , B } ,.).~.@Xr.} ( g.0.:.3.W 9._ f.R.:.3.Y l i h f h h f h ",
"h h f h h h h h i h t # ) 7.j i =.x.= - 6 m H i.1.{ Z.H.i.y.m.g.y.[ ' <.[ ^.d.<.,.L h h h h h h h h ",
"h h h h h f h h h h r - Y n.#....X.X1 8 9 ^ { 3.h.R { U.P.,.t.G.D.p.T <.K.;XF.d.( +.h h i f h h h h ",
"h h h h h f f h h h r : I T.{.$..XV.  @ G ~ h.Q./ 4 9 ~ 1.( G.t.3Xu.D S.^.<.m.i.' +.e p h h h h f h ",
"f h f h h h f h i i r - U n.*X5.>Xn.  m q ^ 9.y.# Z 9 ^ 6 L.:Xt.#X0.W F.Z.( h.i.W c.l.i h i h h h h ",
"h h h h h h h h h p t . ! a. XM.*X>.  : ! 8.t.P.7 { 6 S <.S i.d.F.p.3 F.9.:.S.u.:.N.7.i h i h h h h ",
"h h h h h h h h h i , O U y.T. X4X>.= w.! S i.9Xe.3.! 9 '.^ : j.u.V W `.[ :.d.d.9.4.c i h i h h f h ",
"h h h h h h h h p g = o : P ;.R.:Xd.d.^.P.{ G.#Xg.A 1.~ t.j.6 { 2 O W @XF <.f.v.u.q.+.i h i h h h h ",
"h h h h h h h i h i d K o M ' M.7X9XS S.8X+Xr.G.,.1.d.} ] q 2 @ B O Q.Z.F }.4.Q.D.c.X.i h i h h f h ",
"h h f h h h i h i p i a.G 5 ,.M.G.G.j.).=XkXG.i.^ S ! ( d.` q P.q q Y.I.fX*Xh.oX!.7.k i i p h h h h ",
"h h h h h h h h h j e J 5.+ >.3.) / H._.U.gXtX1.( 6 ~ ( K.N.9 h.] } iXuXhXyXf.S.J.6.f p i h h h h h ",
"f f h f h h i i h e C.~.G.! 2.D c.{ d.'.} dXaX] Z S 5 y.| F S 0 e.t.uXpXgXXXR (.g.y.i p i h h h h h ",
"f f f f h i h i ..7.oX2XL.n ` H 3.1.G.'.S 5X5XA 5 n @ ! J.g.1.'.H.=X9.hXkX}.9.9.{ ,.y j i h h h h f ",
"h h h h h i k w z.Y.Z._.@ ) ! ! _.#X_.'.A H.t.5 . 2.c.N.4X( G.rXwX(. XhX3Xq.F ( h.M K z i h i h f f ",
"h h h h h h f f i d n 1.6 G ! ,.+X8XK.8.d.K.r.^ C -.T.).OX! L.8X;XqXfXhX,Xm V 8.E.v Q z i h h h f f ",
"f h h h h h f h h h J P.` G I ,.|.:X_.s.#X6X%X# q.q.G.).8.S 5X~.8XgXK.5X<XOX5.W ,.M U x h h h h f f ",
"h h h h h h h h h g C G ` ` ) V. X;X6X;X5X'.3.+ W.! ~._.6 q ~ } rXiX;X*X>X7X-X9.u.-.7 z u h i h f h ",
"h h h h h h h u h t -.k.,.` q.jXp.T.fX_.} | H 4 -X-X7X/.: n 5 ( E ^ H *XV.] dX7X8X XN z r i h h h h ",
"h h h h f h h f k d Z ` G ` G #X).+XwX8XN.!.` m d.sXaX).G 9 B 9 D b o b - # rXiX5X7XY i i i h h h h ",
"h f h h h h i u a 5 F ` { J.a.G.;XP.;XwX:X).3.1.y.fXaX4.m , 4 6 m D 7 : = 0 qXtXr.OXq.h f i f h f h ",
"h h h h h i  .r B.D ; ` 6 q.k.!.4Xh.#X8X6X#X%Xw.j.0XfXG.5 4 , : > n 4   @ # ] Q.<.G /...h f h f h h ",
"h h h f i u l e 4X7X` _ D !   ^ m.(./ a.qXaXd.f.8.`.wX=Xi.^ 4 4 ; 7 , : o M ^ 8 b 8 $.e h h h h h h ",
"f h f f h i X.L ^ E.9.G N.!.!.K.m.H.9., <.sX*Xd.j.8.Y.`._.G > + : ; 7 m 7 m 8 F = m Y o.i h h h h h ",
"h h f r  .e }.E.: D b -.2.a.S.( P.`._ ! 6 r.$X3XaX5XoX0XP.9 7 + U > ; : 7 U 7 / [ 3.c.%.p h i h h h ",
"h h h u j e +._.S ` a.W./.| E.r.^ 4.-._ 2 p.-X@XiX3Xt.`.d.n 4 X C 4 o @   W , F 9.S.g.x.i u h i h h ",
"h h h h r o.; u.r.F y.a.c.e.E.T.' 2.^ Q A p.3XaX6XQ.m.h.F O 4   m D , , D 6 m _ 6 w.` #Xb.l h i i h ",
"f h h h p t 4 { d.H.m.G.M.j.%XH Z C Z ` D |.%X6XoXS.d.( O o = = n P , 7 8.W m _ h.,.} H.|.&.i h i h ",
"h h f h e $.; m.H.4.N.2.1XI.S.! U Z G U m *X3XY.Q.j.r.F   . X @ 7 M ; ; : H H M H g.u.+Xc.z h i h h ",
"f h r  .w a.d.[ u.U c.p.{ u.w.P.I.i.` S = 9.2XQ.;Xh.} h.@ o + o n ; @ ; &X/ F U , S 3._ ,.+.i h i h ",
"h h u  .t W u.  G _ P C.U b m.d.:.B 9.` p.=XoX~.;X[ R D W = = = 7 7 $ F 2 = W P G ^ 3.,.;...i h i h ",
"h h h p a N = : 2 ; m c.V - 3 W [ W 9.[  X:XoX`.] e.A.e.^ v M X = @ @ d.W X 2.P : U v._ ) ..i h h h ",
"h h l p l J D = , 2 m T M , M : b W F.W !.3X XOXQ.^.U.r.,.) M X , X b F W m 5.V @ -.e.v.5.Y i p i h ",
"i h p p p :.W = , ; , Y P o - b V W D.5.D.#X|.f.&XeX#XW U D - , v , 3 U 2 P -.@ b ) u.!.U $.p i i h ",
"h h h h h L K b M b + T 5.o b v <.9.:.$X XR.N.9.&X].` T b D , b W B 8 D 3 ,.P 8 [ H / y.U +.i h h h ",
"h h h h h i y y 3 T b M 5.P U B <.9.W N.`.W :.= j.D.P P P M v P W W F 3 @ -.V 7 ` 3.u.) H O.i h i h ",
"h h i h j p p d y 7 V , W ,.- M m b W A._ V n - o ' P P U v , M P b b X o 3 < + T ^ ,.W d o.i h h h ",
"h h h h p p p r < < - 3 y = , , m 3 9.8.v P 3 W p.;.K V d * t y y y * $ $ < X = < t t i j i h h h h ",
"h h f f f f h h * & = # X   v 7 - 7 v < P N x x O.u h g i i i r u i i r s r r r h h h h p h i h h h ",
"h h f f f f f h h * % % o $ < < > < y Y g i h i u h h h h h h h h h h h h h h h i h i h h h h h h h "
};
